<svg id="svg" version="1.1" xmlns="http://www.w3.org/2000/svg" xmlns:xlink="http://www.w3.org/1999/xlink" width="400" height="400" viewBox="0, 0, 400,400"><g id="svgg"><path id="path0" d="M0.000 200.000 L 0.000 400.000 200.000 400.000 L 400.000 400.000 400.000 200.000 L 400.000 0.000 200.000 0.000 L 0.000 0.000 0.000 200.000 M348.243 12.816 C 349.516 13.300,351.025 14.818,351.396 15.987 C 351.538 16.434,351.822 16.800,352.027 16.800 C 352.232 16.800,352.400 17.132,352.400 17.538 C 352.400 18.512,353.396 19.316,355.622 20.135 C 357.372 20.780,359.168 23.168,359.213 24.911 C 359.230 25.586,360.642 26.534,362.906 27.392 C 365.588 28.407,366.397 30.293,366.407 35.551 C 366.415 39.979,366.705 40.466,370.147 41.829 C 373.925 43.325,373.600 36.817,373.600 110.982 C 373.600 185.203,373.930 178.642,370.120 180.170 C 366.318 181.695,366.400 181.559,366.400 186.262 C 366.400 191.037,365.592 193.386,363.795 193.837 C 363.248 193.974,362.800 194.230,362.800 194.404 C 362.800 194.579,362.305 194.911,361.700 195.142 C 360.013 195.787,359.430 196.433,358.640 198.527 C 358.071 200.036,357.597 200.600,356.457 201.127 C 355.655 201.497,354.910 201.890,354.800 202.000 C 354.690 202.110,354.252 202.392,353.827 202.627 C 353.401 202.861,352.861 203.401,352.627 203.827 C 352.392 204.252,352.100 204.690,351.977 204.800 C 351.855 204.910,351.509 205.608,351.208 206.351 C 350.001 209.333,352.341 209.181,307.280 209.191 C 271.005 209.199,267.038 209.138,265.880 208.549 C 264.183 207.687,263.245 206.660,262.719 205.091 C 262.208 203.566,261.277 202.400,260.571 202.400 C 260.294 202.400,260.007 202.265,259.933 202.100 C 259.860 201.935,259.140 201.495,258.334 201.123 C 257.298 200.644,256.717 200.029,256.354 199.023 C 256.071 198.240,255.695 197.600,255.520 197.600 C 255.344 197.600,255.200 197.358,255.200 197.062 C 255.200 196.307,254.001 195.313,252.700 194.988 C 252.095 194.837,251.600 194.565,251.600 194.384 C 251.600 194.202,251.237 193.939,250.793 193.798 C 249.199 193.292,248.401 190.812,248.387 186.316 C 248.373 181.655,248.331 181.586,244.694 180.208 C 240.871 178.761,241.200 185.272,241.200 110.982 C 241.200 36.777,240.877 43.236,244.655 41.808 C 247.941 40.565,248.400 39.784,248.400 35.430 C 248.400 30.293,249.247 28.344,251.905 27.363 C 254.201 26.516,255.200 25.721,255.200 24.738 C 255.200 24.332,255.353 24.000,255.539 24.000 C 255.726 24.000,256.201 23.285,256.595 22.412 C 257.172 21.132,257.668 20.692,259.155 20.144 C 261.509 19.277,262.253 18.635,262.534 17.229 C 262.766 16.070,264.774 13.687,266.200 12.878 C 267.282 12.264,346.634 12.205,348.243 12.816 M199.056 41.970 C 200.322 42.544,200.824 43.060,201.187 44.161 C 201.448 44.952,201.828 45.600,202.031 45.600 C 202.234 45.600,202.406 45.825,202.413 46.100 C 202.438 47.031,203.791 48.196,205.791 49.009 C 207.546 49.723,207.877 50.054,208.591 51.809 C 209.404 53.809,210.569 55.162,211.500 55.187 C 211.775 55.194,212.000 55.366,212.000 55.569 C 212.000 55.772,212.648 56.152,213.439 56.413 C 216.676 57.481,216.381 45.594,216.391 175.316 C 216.401 304.079,216.641 293.123,213.795 293.837 C 213.248 293.974,212.800 294.235,212.800 294.416 C 212.800 294.598,212.395 294.874,211.900 295.031 C 209.467 295.801,209.227 296.297,209.204 300.600 C 209.175 305.963,208.468 307.604,205.741 308.639 C 203.807 309.374,202.439 310.550,202.413 311.500 C 202.406 311.775,202.234 312.000,202.031 312.000 C 201.828 312.000,201.448 312.648,201.187 313.439 C 200.251 316.274,199.566 316.381,182.280 316.391 C 164.609 316.401,164.237 316.324,162.801 312.353 C 162.056 310.293,161.218 309.459,159.073 308.645 C 157.566 308.073,156.999 307.595,156.473 306.457 C 156.103 305.655,155.665 304.940,155.500 304.867 C 155.335 304.793,155.200 302.886,155.200 300.629 C 155.200 296.148,154.933 295.545,152.700 294.988 C 152.095 294.837,151.600 294.565,151.600 294.384 C 151.600 294.202,151.237 293.939,150.793 293.798 C 148.194 292.973,148.399 303.172,148.409 175.316 C 148.419 46.061,148.142 57.650,151.249 56.392 C 151.992 56.091,152.690 55.745,152.800 55.623 C 152.910 55.500,153.348 55.208,153.773 54.973 C 154.199 54.739,154.739 54.199,154.973 53.773 C 155.208 53.348,155.490 52.910,155.600 52.800 C 155.710 52.690,156.103 51.945,156.473 51.143 C 156.999 50.005,157.566 49.527,159.073 48.955 C 161.218 48.141,162.056 47.307,162.801 45.247 C 163.396 43.602,164.164 42.737,165.800 41.869 C 167.774 40.821,196.721 40.909,199.056 41.970 M98.742 170.223 C 99.897 170.685,100.483 171.254,101.011 172.423 C 101.402 173.291,101.874 174.000,102.061 174.000 C 102.247 174.000,102.400 174.301,102.400 174.669 C 102.400 176.331,103.533 176.800,107.549 176.800 C 114.856 176.800,116.394 178.319,116.407 185.551 C 116.415 189.979,116.705 190.466,120.147 191.829 C 123.950 193.335,123.601 184.890,123.591 275.333 C 123.581 365.555,123.928 357.072,120.185 358.568 C 117.744 359.543,116.802 360.486,115.782 362.971 C 115.063 364.725,114.725 365.063,112.971 365.782 C 110.495 366.798,109.612 367.677,108.527 370.210 C 107.783 371.947,107.421 372.304,105.678 373.018 C 103.212 374.027,102.400 374.679,102.400 375.649 C 102.400 376.062,102.240 376.400,102.043 376.400 C 101.847 376.400,101.408 377.096,101.068 377.947 C 99.900 380.865,100.574 380.800,71.705 380.800 C 42.473 380.800,43.412 380.898,41.994 377.692 C 41.557 376.706,41.200 375.658,41.200 375.363 C 41.200 374.769,40.347 374.223,37.446 372.960 C 35.783 372.236,35.365 371.817,34.645 370.154 C 33.339 367.142,33.163 366.955,30.600 365.880 C 28.426 364.967,28.124 364.690,27.396 362.936 C 26.362 360.447,25.534 359.200,24.914 359.200 C 23.403 359.200,20.800 357.383,20.214 355.919 C 19.267 353.551,19.281 197.062,20.229 194.579 C 20.841 192.978,23.333 191.200,24.965 191.200 C 26.202 191.200,26.800 189.330,26.800 185.458 C 26.800 178.451,28.451 176.800,35.458 176.800 C 39.330 176.800,41.200 176.202,41.200 174.965 C 41.200 173.482,42.983 170.837,44.365 170.268 C 46.584 169.355,96.469 169.314,98.742 170.223 " stroke="none" fill="#fcfcfc" fill-rule="evenodd"></path><path id="path1" d="M267.229 15.706 C 266.696 15.978,265.796 17.020,265.229 18.023 C 263.971 20.252,263.020 21.203,260.670 22.580 C 259.490 23.271,258.557 24.226,257.991 25.321 C 256.926 27.380,256.048 28.400,255.338 28.400 C 255.042 28.400,254.800 28.541,254.800 28.714 C 254.800 28.886,254.235 29.361,253.545 29.769 C 250.976 31.287,250.800 31.666,250.799 35.700 C 250.799 40.200,250.151 41.764,247.771 43.007 C 246.876 43.475,245.571 44.457,244.871 45.188 L 243.600 46.519 243.606 110.959 C 243.609 146.402,243.744 175.590,243.906 175.821 C 244.068 176.053,244.920 176.772,245.800 177.419 C 246.680 178.066,247.490 178.700,247.600 178.827 C 247.710 178.954,248.105 179.171,248.477 179.308 C 249.999 179.869,250.593 181.602,250.804 186.106 C 251.031 190.954,251.086 191.050,254.680 192.823 C 255.967 193.458,256.688 194.232,257.758 196.126 C 258.919 198.180,259.568 198.835,261.582 199.981 C 263.389 201.011,264.211 201.775,264.807 202.981 C 265.246 203.872,265.954 205.050,266.380 205.600 L 267.154 206.600 306.677 206.706 C 333.298 206.778,346.528 206.677,347.203 206.398 C 348.077 206.037,349.042 204.751,350.635 201.824 C 350.867 201.397,351.872 200.587,352.868 200.024 C 355.749 198.395,355.828 198.319,357.203 195.869 C 358.021 194.412,358.902 193.389,359.554 193.141 C 361.093 192.556,363.200 190.845,363.200 190.180 C 363.200 189.861,363.380 189.600,363.600 189.600 C 363.837 189.600,364.000 188.127,364.000 185.980 C 364.000 181.706,365.559 178.400,367.575 178.400 C 367.777 178.400,368.586 177.794,369.372 177.053 L 370.800 175.706 370.800 111.178 L 370.800 46.650 369.904 45.342 C 369.412 44.624,368.197 43.622,367.204 43.118 C 364.664 41.826,364.001 40.321,364.001 35.840 C 364.000 31.996,362.424 29.569,359.099 28.293 C 358.434 28.038,356.400 25.141,356.400 24.450 C 356.400 24.048,352.756 21.600,352.159 21.600 C 351.728 21.600,349.200 17.857,349.200 17.218 C 349.200 16.982,348.615 16.432,347.900 15.996 C 346.282 15.009,269.143 14.732,267.229 15.706 M167.595 43.858 C 166.929 44.038,164.400 47.540,164.400 48.279 C 164.400 48.534,163.275 49.419,161.900 50.246 C 159.243 51.844,159.160 51.929,157.576 54.732 C 157.013 55.728,156.203 56.733,155.776 56.965 C 152.848 58.559,151.564 59.523,151.204 60.397 C 150.923 61.080,150.824 97.876,150.896 175.923 L 151.000 290.446 152.000 291.220 C 152.550 291.646,153.771 292.374,154.713 292.839 C 157.205 294.068,158.000 295.855,158.000 300.222 C 158.000 304.515,158.429 305.310,161.830 307.316 C 163.243 308.150,164.400 309.068,164.400 309.356 C 164.400 310.195,166.747 313.200,167.403 313.200 C 167.731 313.200,168.000 313.380,168.000 313.600 C 168.000 313.859,173.067 314.000,182.400 314.000 C 190.320 314.000,196.801 313.865,196.803 313.700 C 196.804 313.535,197.303 313.117,197.912 312.770 C 198.521 312.424,199.470 311.266,200.020 310.197 C 200.755 308.769,201.494 308.003,202.809 307.308 C 206.207 305.511,206.800 304.479,206.800 300.359 C 206.800 296.196,207.683 293.853,209.515 293.156 C 211.087 292.558,213.200 290.852,213.200 290.180 C 213.200 289.861,213.380 289.600,213.600 289.600 C 213.866 289.600,214.000 251.200,214.000 175.200 C 214.000 112.280,213.865 60.799,213.700 60.797 C 213.535 60.796,213.117 60.297,212.770 59.688 C 212.424 59.079,211.266 58.130,210.197 57.580 C 208.788 56.855,208.002 56.104,207.336 54.845 C 206.178 52.654,204.949 51.424,202.766 50.270 C 201.576 49.640,200.754 48.807,200.110 47.579 C 199.598 46.601,198.619 45.305,197.935 44.700 L 196.692 43.600 182.446 43.646 C 174.611 43.672,167.928 43.767,167.595 43.858 M45.313 173.300 C 44.612 173.795,43.736 174.866,43.367 175.680 C 41.993 178.713,40.740 179.371,35.910 179.598 C 30.072 179.873,29.873 180.072,29.598 185.910 C 29.371 190.748,28.755 191.915,25.629 193.435 C 24.782 193.847,23.709 194.739,23.245 195.417 L 22.400 196.650 22.400 275.178 L 22.400 353.706 23.233 355.053 C 23.691 355.794,24.234 356.400,24.441 356.400 C 25.139 356.400,28.037 358.430,28.293 359.099 C 28.887 360.647,31.979 363.890,33.672 364.741 C 34.393 365.103,35.257 365.931,35.592 366.579 C 36.375 368.098,39.501 371.225,41.021 372.008 C 41.673 372.345,42.635 373.436,43.173 374.451 C 45.191 378.252,43.169 378.000,71.625 377.998 C 99.968 377.996,97.980 378.234,99.929 374.605 C 100.581 373.390,101.469 372.386,102.200 372.038 C 102.860 371.723,103.580 371.253,103.800 370.992 C 104.020 370.731,104.650 370.219,105.200 369.855 C 105.750 369.491,106.654 368.340,107.209 367.297 C 107.827 366.135,108.701 365.168,109.465 364.800 C 111.068 364.028,114.028 361.068,114.800 359.465 C 115.170 358.697,116.132 357.831,117.307 357.209 C 121.195 355.152,120.794 364.566,120.797 275.225 L 120.800 196.650 119.904 195.342 C 119.412 194.624,118.197 193.622,117.204 193.118 C 114.664 191.826,114.001 190.321,114.001 185.840 C 114.000 180.625,112.924 179.600,107.448 179.600 C 104.973 179.600,103.468 179.426,103.112 179.100 C 102.812 178.825,102.214 178.405,101.783 178.166 C 101.352 177.928,100.518 176.848,99.929 175.766 C 97.968 172.169,99.950 172.404,71.594 172.402 L 46.589 172.400 45.313 173.300 " stroke="none" fill="#040404" fill-rule="evenodd"></path><path id="path2" d="" stroke="none" fill="#bc10080" fill-rule="evenodd"></path><path id="path3" d="" stroke="none" fill="#bc10080" fill-rule="evenodd"></path><path id="path4" d="" stroke="none" fill="#bc10080" fill-rule="evenodd"></path></g></svg>