<svg id="svg" version="1.1" xmlns="http://www.w3.org/2000/svg" xmlns:xlink="http://www.w3.org/1999/xlink" width="400" height="400" viewBox="0, 0, 400,400"><g id="svgg"><path id="path0" d="M0.000 200.000 L 0.000 400.000 200.000 400.000 L 400.000 400.000 400.000 200.000 L 400.000 0.000 200.000 0.000 L 0.000 0.000 0.000 200.000 M341.764 20.263 C 342.549 20.638,343.361 21.423,343.626 22.063 C 343.885 22.689,344.252 23.200,344.441 23.200 C 344.630 23.200,344.902 23.695,345.046 24.300 C 345.577 26.535,346.157 26.799,350.562 26.809 C 355.914 26.820,357.480 27.492,358.580 30.247 C 359.596 32.792,360.384 33.593,362.843 34.584 C 364.633 35.304,364.973 35.637,365.736 37.418 C 366.839 39.994,367.733 40.889,370.147 41.836 C 373.803 43.270,373.600 41.100,373.600 78.800 C 373.600 116.500,373.803 114.330,370.147 115.764 C 367.733 116.711,366.839 117.606,365.736 120.182 C 364.986 121.930,364.613 122.307,362.936 123.004 C 360.494 124.019,359.200 124.865,359.200 125.445 C 359.200 129.020,356.293 130.800,350.454 130.800 C 346.166 130.800,345.575 131.073,345.046 133.300 C 344.902 133.905,344.630 134.400,344.441 134.400 C 344.252 134.400,343.885 134.911,343.626 135.537 C 342.531 138.182,348.358 138.000,264.691 138.000 C 178.549 138.000,186.395 138.333,184.779 134.605 C 184.301 133.502,183.782 132.341,183.627 132.025 C 183.472 131.709,182.210 130.969,180.824 130.380 C 178.506 129.396,178.241 129.154,177.517 127.355 C 176.150 123.960,176.554 124.364,172.995 122.821 C 171.274 122.075,170.882 121.687,170.225 120.076 C 169.189 117.535,168.420 116.400,167.734 116.400 C 166.115 116.400,163.737 114.572,162.897 112.681 C 162.175 111.056,162.175 46.544,162.897 44.919 C 163.737 43.028,166.115 41.200,167.734 41.200 C 168.420 41.200,169.189 40.065,170.225 37.524 C 170.882 35.913,171.274 35.525,172.995 34.779 C 174.098 34.301,175.259 33.782,175.575 33.627 C 175.891 33.472,176.629 32.215,177.215 30.835 C 178.631 27.499,180.059 26.800,185.458 26.800 C 189.330 26.800,191.200 26.202,191.200 24.965 C 191.200 23.482,192.983 20.837,194.365 20.268 C 196.691 19.311,339.757 19.307,341.764 20.263 M120.272 70.295 C 121.662 70.870,122.103 71.337,122.821 72.995 C 123.299 74.098,123.818 75.259,123.973 75.575 C 124.128 75.891,125.392 76.632,126.781 77.222 C 129.221 78.258,129.342 78.379,130.378 80.819 C 130.968 82.208,131.709 83.472,132.025 83.627 C 132.341 83.782,133.502 84.301,134.605 84.779 C 137.303 85.948,137.995 87.578,138.013 92.804 C 138.027 96.630,138.649 98.400,139.980 98.400 C 140.707 98.400,143.600 99.982,143.600 100.380 C 143.600 100.579,143.915 101.058,144.300 101.443 C 144.963 102.106,145.000 107.346,145.000 200.200 C 145.000 293.054,144.963 298.294,144.300 298.957 C 143.915 299.342,143.600 299.827,143.600 300.035 C 143.600 300.243,142.970 300.713,142.200 301.081 C 141.430 301.448,140.800 301.895,140.800 302.074 C 140.800 302.253,140.499 302.400,140.131 302.400 C 138.469 302.400,138.000 303.533,138.000 307.549 C 138.000 313.365,136.149 316.400,132.603 316.400 C 131.970 316.400,131.440 317.215,130.161 320.152 C 129.388 321.926,129.080 322.202,126.783 323.177 C 124.092 324.319,124.048 324.367,122.928 327.320 C 121.532 331.002,123.678 330.800,85.957 330.800 C 48.684 330.800,50.641 330.965,49.199 327.705 C 48.760 326.712,48.400 325.694,48.400 325.445 C 48.400 324.865,47.106 324.019,44.664 323.004 C 42.987 322.307,42.614 321.930,41.864 320.182 C 40.761 317.604,39.867 316.710,37.449 315.764 C 34.814 314.733,34.268 313.472,34.004 307.814 L 33.800 303.427 32.600 302.814 C 31.940 302.476,31.304 302.072,31.186 301.916 C 31.068 301.759,30.326 301.361,29.536 301.031 C 26.564 299.789,26.799 308.498,26.809 200.092 C 26.819 89.651,26.450 100.537,30.228 99.027 C 33.760 97.615,34.000 97.217,34.000 92.779 C 34.000 88.936,34.990 85.200,36.008 85.200 C 38.015 85.200,40.720 83.051,41.690 80.686 C 42.623 78.412,42.869 78.139,44.654 77.399 C 47.152 76.363,48.400 75.535,48.400 74.914 C 48.400 73.480,50.219 70.797,51.573 70.234 C 53.924 69.257,117.899 69.314,120.272 70.295 M341.326 212.861 C 342.745 213.609,345.200 216.581,345.200 217.550 C 345.200 219.140,346.380 219.600,350.454 219.600 C 356.190 219.600,359.122 221.377,359.213 224.911 C 359.230 225.586,360.642 226.534,362.906 227.392 C 365.588 228.407,366.397 230.293,366.407 235.551 C 366.415 239.979,366.705 240.466,370.147 241.829 C 373.888 243.310,373.600 238.736,373.600 296.625 C 373.600 353.198,373.770 349.817,370.864 351.031 C 370.074 351.361,369.332 351.759,369.214 351.916 C 369.096 352.072,368.460 352.503,367.800 352.873 C 366.605 353.543,366.599 353.566,366.396 357.873 C 366.130 363.511,365.569 364.800,362.951 365.790 C 360.583 366.685,359.550 367.725,358.556 370.213 C 357.486 372.891,355.871 373.580,350.631 373.591 C 346.466 373.600,345.200 374.069,345.200 375.601 C 345.200 375.973,344.840 376.693,344.400 377.200 C 343.960 377.707,343.600 378.361,343.600 378.653 C 343.600 378.945,342.887 379.547,342.016 379.992 C 339.774 381.136,197.488 381.282,194.507 380.143 C 192.852 379.511,191.200 377.140,191.200 375.395 C 191.200 374.198,189.289 373.600,185.465 373.600 C 181.735 373.600,178.000 372.595,178.000 371.592 C 178.000 370.711,175.814 366.708,175.236 366.531 C 170.515 365.090,169.600 363.643,169.600 357.618 C 169.600 353.632,169.113 352.400,167.538 352.400 C 167.132 352.400,166.800 352.232,166.800 352.027 C 166.800 351.822,166.434 351.538,165.987 351.396 C 164.818 351.025,163.300 349.516,162.816 348.243 C 162.165 346.530,162.243 246.390,162.897 244.919 C 163.737 243.028,166.115 241.200,167.734 241.200 C 168.995 241.200,169.600 239.359,169.600 235.518 C 169.600 230.389,170.303 228.746,172.995 227.579 C 176.538 226.043,176.043 226.538,177.579 222.995 C 178.746 220.303,180.389 219.600,185.518 219.600 C 189.359 219.600,191.200 218.995,191.200 217.734 C 191.200 216.177,193.008 213.760,194.800 212.922 C 196.231 212.253,340.060 212.193,341.326 212.861 " stroke="none" fill="#fcfcfc" fill-rule="evenodd"></path><path id="path1" d="M195.596 24.900 C 195.160 25.615,194.802 26.410,194.801 26.667 C 194.801 26.923,194.658 27.193,194.486 27.267 C 194.313 27.340,193.765 27.979,193.268 28.686 C 192.120 30.321,190.436 30.795,185.762 30.798 C 181.709 30.800,181.276 31.031,180.440 33.637 C 179.891 35.350,178.515 36.645,175.802 38.000 C 174.145 38.828,173.713 39.275,173.292 40.600 C 172.696 42.480,171.430 43.682,168.174 45.459 L 166.600 46.317 166.600 78.826 L 166.600 111.335 168.400 112.260 C 171.283 113.742,172.688 115.085,173.266 116.914 C 173.716 118.336,174.114 118.757,175.802 119.600 C 178.515 120.955,179.891 122.250,180.440 123.963 C 181.050 125.866,181.827 126.698,183.289 127.020 C 184.923 127.378,186.769 129.228,187.989 131.729 L 189.000 133.800 264.229 133.901 C 335.461 133.997,339.495 133.965,340.163 133.301 C 340.552 132.915,341.355 131.610,341.948 130.400 C 343.378 127.485,344.338 127.042,349.600 126.868 C 353.853 126.727,355.200 126.263,355.200 124.938 C 355.200 124.642,355.380 124.400,355.600 124.400 C 355.820 124.400,356.000 124.185,356.000 123.922 C 356.000 122.719,358.153 120.390,359.632 119.991 C 361.233 119.560,362.800 117.978,362.800 116.793 C 362.800 115.886,365.886 112.800,366.793 112.800 C 367.178 112.800,367.966 112.427,368.546 111.971 L 369.600 111.142 369.600 78.800 L 369.600 46.458 368.546 45.629 C 367.966 45.173,367.245 44.800,366.943 44.800 C 366.460 44.800,365.063 43.740,363.344 42.071 C 363.045 41.781,362.800 41.220,362.800 40.825 C 362.800 39.623,361.243 38.042,359.632 37.609 C 358.153 37.210,356.000 34.881,356.000 33.678 C 356.000 33.415,355.820 33.200,355.600 33.200 C 355.380 33.200,355.200 32.958,355.200 32.662 C 355.200 31.337,353.853 30.873,349.600 30.732 C 344.338 30.558,343.378 30.115,341.948 27.200 C 341.355 25.990,340.552 24.685,340.165 24.300 C 339.499 23.639,335.519 23.600,267.924 23.600 L 196.388 23.600 195.596 24.900 M53.062 74.331 C 52.698 74.734,52.400 75.274,52.400 75.531 C 52.400 75.789,52.220 76.000,52.000 76.000 C 51.780 76.000,51.600 76.228,51.600 76.507 C 51.600 77.745,49.558 79.981,48.059 80.384 C 46.389 80.834,45.454 81.679,45.006 83.144 C 44.733 84.039,43.866 85.232,42.300 86.869 C 41.915 87.271,41.264 87.600,40.854 87.600 C 38.759 87.600,38.000 89.015,37.998 92.929 C 37.994 98.409,36.405 101.600,33.678 101.600 C 33.415 101.600,33.200 101.780,33.200 102.000 C 33.200 102.220,32.958 102.400,32.662 102.400 C 30.681 102.400,30.799 96.166,30.813 200.231 C 30.828 306.942,30.604 297.808,33.222 298.588 C 36.942 299.698,37.994 301.655,37.998 307.471 C 38.000 311.369,38.759 312.800,40.825 312.800 C 41.220 312.800,41.781 313.045,42.071 313.344 C 43.740 315.063,44.800 316.460,44.800 316.943 C 44.800 317.993,46.452 319.583,47.968 319.991 C 49.447 320.390,51.600 322.719,51.600 323.922 C 51.600 324.185,51.780 324.400,52.000 324.400 C 52.220 324.400,52.400 324.642,52.400 324.938 C 52.400 326.844,51.612 326.800,86.070 326.800 C 121.949 326.800,118.936 327.042,119.928 324.085 C 120.493 322.401,122.401 320.493,124.085 319.928 C 125.936 319.307,126.743 318.499,127.197 316.810 C 127.635 315.183,129.240 313.675,132.000 312.298 L 133.800 311.400 134.010 306.768 C 134.254 301.368,134.712 300.348,137.433 299.144 C 138.404 298.715,139.649 297.946,140.199 297.436 L 141.200 296.508 141.200 200.068 C 141.200 105.342,141.186 103.621,140.431 103.217 C 140.008 102.990,139.423 102.579,139.131 102.303 C 138.839 102.026,137.934 101.492,137.120 101.116 C 134.705 100.000,134.248 98.900,134.010 93.632 L 133.800 89.000 131.798 88.000 C 129.085 86.645,127.709 85.350,127.160 83.637 C 126.550 81.736,125.773 80.902,124.316 80.582 C 122.732 80.234,120.536 78.123,119.953 76.388 C 118.931 73.346,122.027 73.600,86.000 73.600 C 55.240 73.600,53.693 73.634,53.062 74.331 M195.633 217.747 C 195.175 218.488,194.800 219.298,194.800 219.547 C 194.800 219.796,194.649 220.000,194.464 220.000 C 194.280 220.000,193.928 220.440,193.682 220.979 C 192.824 222.864,191.435 223.364,186.432 223.590 L 181.800 223.800 180.470 226.470 C 179.226 228.966,178.966 229.226,176.470 230.470 L 173.800 231.800 173.590 236.432 C 173.368 241.357,172.906 242.695,171.100 243.646 C 170.605 243.906,170.109 244.228,169.998 244.360 C 169.886 244.492,169.076 244.986,168.198 245.459 L 166.600 246.317 166.498 296.411 L 166.397 346.505 167.399 347.434 C 167.951 347.945,169.196 348.715,170.167 349.144 C 172.888 350.348,173.346 351.368,173.590 356.768 L 173.800 361.400 175.800 362.389 C 178.168 363.560,180.400 365.668,180.400 366.733 C 180.400 368.841,181.808 369.600,185.729 369.602 C 190.532 369.605,192.060 370.052,193.252 371.803 C 193.774 372.568,194.315 373.196,194.457 373.197 C 194.598 373.199,194.837 373.695,194.988 374.300 C 195.672 377.040,188.684 376.800,267.876 376.800 C 346.399 376.800,340.833 376.980,341.396 374.420 C 342.156 370.959,344.473 369.675,350.034 369.630 C 354.196 369.597,355.469 368.917,356.129 366.373 C 356.465 365.077,358.656 362.800,359.566 362.800 C 361.641 362.800,362.400 361.374,362.402 357.471 C 362.406 351.971,364.032 348.800,366.848 348.800 C 367.244 348.800,368.025 348.307,368.584 347.704 L 369.600 346.608 369.600 296.533 L 369.600 246.458 368.546 245.629 C 367.966 245.173,367.237 244.800,366.924 244.800 C 366.612 244.800,365.781 244.261,365.078 243.602 C 364.375 242.943,363.673 242.403,363.519 242.402 C 362.932 242.398,362.404 239.263,362.402 235.762 C 362.400 231.674,362.080 231.089,359.449 230.363 C 358.037 229.972,356.000 227.696,356.000 226.507 C 356.000 226.228,355.865 225.999,355.700 225.997 C 355.535 225.996,355.103 225.472,354.740 224.834 C 354.083 223.680,354.052 223.672,349.740 223.535 C 344.409 223.365,343.355 222.911,342.000 220.200 C 341.450 219.100,340.645 217.795,340.211 217.300 L 339.422 216.400 267.944 216.400 L 196.465 216.400 195.633 217.747 " stroke="none" fill="#040404" fill-rule="evenodd"></path><path id="path2" d="" stroke="none" fill="#c010080" fill-rule="evenodd"></path><path id="path3" d="M195.932 20.902 C 195.639 21.182,194.894 21.735,194.275 22.131 C 193.656 22.527,192.816 23.629,192.409 24.579 C 191.285 27.200,190.449 27.600,186.085 27.600 C 184.029 27.600,182.015 27.778,181.610 27.995 C 180.346 28.671,178.310 30.918,177.753 32.251 C 177.187 33.606,175.454 35.200,174.546 35.200 C 173.714 35.200,171.676 37.484,169.980 40.316 C 169.489 41.137,168.518 41.921,167.400 42.400 C 166.275 42.882,165.317 43.659,164.827 44.484 C 164.398 45.208,163.857 46.017,163.624 46.283 C 163.119 46.859,163.014 111.055,163.517 111.267 C 163.691 111.340,164.257 112.092,164.773 112.938 C 165.397 113.959,166.298 114.728,167.453 115.223 C 168.521 115.681,169.496 116.476,169.980 117.284 C 171.676 120.116,173.714 122.400,174.546 122.400 C 175.454 122.400,177.187 123.994,177.753 125.349 C 178.427 126.963,180.610 129.161,182.196 129.824 C 183.716 130.459,184.545 131.376,185.340 133.300 C 185.680 134.125,186.103 134.803,186.280 134.806 C 186.456 134.810,187.211 135.351,187.958 136.009 L 189.315 137.206 264.822 137.103 L 340.329 137.000 341.964 135.331 C 342.864 134.414,343.600 133.388,343.600 133.052 C 343.600 131.185,346.032 130.004,349.881 130.002 C 354.994 129.999,356.371 129.274,358.039 125.708 C 358.600 124.509,359.379 123.699,360.715 122.929 C 363.350 121.409,364.290 120.486,365.424 118.304 C 366.160 116.888,366.888 116.160,368.304 115.424 C 370.264 114.405,371.538 113.237,372.338 111.726 C 372.676 111.086,372.800 102.277,372.800 78.806 C 372.800 41.504,373.199 44.755,368.304 42.186 C 366.893 41.445,366.157 40.707,365.424 39.296 C 364.290 37.114,363.350 36.191,360.715 34.671 C 359.379 33.901,358.600 33.091,358.039 31.892 C 356.371 28.326,354.994 27.601,349.881 27.598 C 346.032 27.596,343.600 26.415,343.600 24.548 C 343.600 24.212,342.864 23.186,341.964 22.269 L 340.329 20.600 268.396 20.497 C 210.649 20.414,196.359 20.494,195.932 20.902 M340.233 23.909 C 340.691 24.289,341.562 25.639,342.167 26.909 C 343.588 29.890,344.711 30.395,349.949 30.413 C 353.928 30.426,356.000 31.278,356.000 32.901 C 356.000 34.142,358.196 36.803,359.588 37.247 C 361.328 37.803,362.800 39.096,362.800 40.069 C 362.800 41.077,366.622 44.800,367.657 44.800 C 367.927 44.800,368.565 45.191,369.074 45.670 L 370.000 46.539 370.000 78.744 L 370.000 110.948 369.130 111.874 C 368.652 112.383,367.923 112.800,367.511 112.800 C 366.538 112.800,362.800 116.538,362.800 117.511 C 362.800 118.502,361.341 119.793,359.588 120.353 C 358.196 120.797,356.000 123.458,356.000 124.699 C 356.000 126.322,353.928 127.174,349.949 127.187 C 344.711 127.205,343.588 127.710,342.167 130.691 C 341.562 131.961,340.691 133.311,340.233 133.691 C 338.931 134.771,189.662 134.780,188.702 133.700 C 188.360 133.315,187.803 132.330,187.465 131.511 C 186.698 129.653,184.731 127.693,183.292 127.353 C 181.796 127.000,180.534 125.771,180.260 124.402 C 179.959 122.894,178.010 120.947,175.894 120.040 C 173.943 119.204,173.420 118.659,173.039 117.066 C 172.712 115.700,169.749 112.800,168.680 112.800 C 168.484 112.800,167.801 112.428,167.162 111.973 L 166.000 111.146 166.000 78.800 L 166.000 46.454 167.162 45.627 C 167.801 45.172,168.521 44.800,168.762 44.800 C 169.003 44.800,169.200 44.653,169.200 44.474 C 169.200 44.295,169.832 43.847,170.604 43.478 C 171.536 43.034,172.225 42.303,172.653 41.304 C 173.007 40.477,173.422 39.530,173.574 39.200 C 173.727 38.870,174.712 38.183,175.764 37.674 C 178.073 36.557,179.897 34.774,180.247 33.292 C 180.829 30.830,181.727 30.400,186.290 30.400 C 191.074 30.400,192.258 29.973,193.411 27.831 C 193.835 27.044,194.321 26.400,194.491 26.400 C 194.661 26.400,194.800 26.154,194.800 25.854 C 194.800 25.554,195.173 24.834,195.629 24.254 L 196.458 23.200 267.929 23.209 C 335.050 23.217,339.451 23.260,340.233 23.909 M53.057 71.000 C 52.727 71.330,52.296 71.600,52.098 71.600 C 51.485 71.600,50.067 73.341,49.421 74.887 C 48.994 75.911,48.221 76.703,46.902 77.470 C 44.277 78.997,43.135 80.121,42.195 82.103 C 41.629 83.296,40.858 84.097,39.595 84.800 C 35.592 87.030,34.800 88.415,34.800 93.188 C 34.800 97.440,34.354 98.407,31.852 99.578 C 29.796 100.541,28.744 101.478,28.100 102.919 C 27.367 104.560,27.367 295.840,28.100 297.481 C 28.726 298.883,29.782 299.846,31.688 300.753 C 34.308 302.000,34.800 303.017,34.800 307.189 C 34.800 312.005,35.625 313.516,39.296 315.424 C 40.724 316.166,41.429 316.876,42.158 318.304 C 43.359 320.661,44.057 321.358,46.680 322.828 C 48.234 323.699,48.961 324.423,49.556 325.697 C 50.540 327.802,51.468 328.852,52.919 329.500 C 54.310 330.122,117.610 330.237,118.763 329.620 C 120.124 328.892,122.017 326.857,122.573 325.525 C 123.216 323.987,124.198 323.017,125.520 322.614 C 126.776 322.231,128.901 320.037,130.050 317.937 C 130.736 316.682,131.511 315.956,132.841 315.320 C 133.854 314.836,135.012 313.936,135.414 313.320 C 135.817 312.704,136.384 311.962,136.673 311.671 C 137.036 311.307,137.200 309.937,137.200 307.261 C 137.200 303.228,138.299 300.800,140.124 300.800 C 141.085 300.800,142.789 299.200,143.410 297.714 C 144.303 295.577,144.303 104.823,143.410 102.686 C 142.785 101.189,141.083 99.600,140.107 99.600 C 138.256 99.600,137.200 97.280,137.200 93.212 C 137.200 89.449,137.157 89.260,136.006 87.954 C 135.350 87.209,134.810 86.456,134.806 86.280 C 134.803 86.103,134.125 85.680,133.300 85.340 C 131.369 84.542,130.459 83.716,129.815 82.174 C 129.200 80.702,126.654 78.130,125.450 77.764 C 124.139 77.365,123.242 76.410,122.408 74.525 C 121.988 73.576,121.500 72.797,121.322 72.794 C 121.145 72.790,120.391 72.250,119.646 71.594 L 118.292 70.400 85.974 70.400 C 57.781 70.400,53.581 70.477,53.057 71.000 M119.078 74.100 C 119.527 74.595,120.008 75.479,120.146 76.064 C 120.492 77.528,122.957 79.971,124.375 80.255 C 125.769 80.534,126.997 81.787,127.353 83.292 C 127.693 84.731,129.653 86.698,131.511 87.465 C 134.257 88.599,134.400 88.886,134.400 93.275 C 134.400 98.383,134.919 99.683,137.440 100.894 C 138.478 101.392,139.838 102.245,140.463 102.789 L 141.600 103.778 141.600 200.217 L 141.600 296.656 140.500 297.622 C 139.895 298.154,138.538 298.991,137.484 299.483 C 134.920 300.681,134.400 301.975,134.400 307.158 C 134.400 311.242,133.691 312.800,131.833 312.800 C 131.368 312.800,129.676 314.010,128.318 315.313 C 127.909 315.704,127.471 316.547,127.343 317.184 C 127.068 318.559,125.812 319.798,124.343 320.144 C 122.981 320.466,120.466 322.981,120.144 324.343 C 120.007 324.924,119.527 325.805,119.078 326.300 L 118.261 327.200 86.030 327.187 L 53.800 327.175 52.700 326.207 C 52.095 325.674,51.600 324.996,51.600 324.699 C 51.600 323.458,49.404 320.797,48.012 320.353 C 46.402 319.838,44.800 318.522,44.800 317.713 C 44.800 316.663,41.125 312.800,40.125 312.800 C 38.284 312.800,37.600 311.281,37.600 307.190 C 37.600 301.826,35.867 298.800,32.795 298.800 C 32.441 298.800,31.757 298.267,31.275 297.616 L 30.400 296.432 30.413 200.116 L 30.425 103.800 31.393 102.700 C 31.926 102.095,32.604 101.600,32.901 101.600 C 35.867 101.600,37.600 98.505,37.600 93.210 C 37.600 88.956,38.070 88.019,40.488 87.448 C 41.645 87.175,43.461 85.464,43.831 84.300 C 43.954 83.915,44.222 83.600,44.427 83.600 C 44.632 83.600,44.800 83.271,44.800 82.870 C 44.800 81.879,46.280 80.601,48.102 80.018 C 49.546 79.555,51.600 76.988,51.600 75.646 C 51.600 75.379,52.095 74.726,52.700 74.193 L 53.800 73.225 86.030 73.213 L 118.261 73.200 119.078 74.100 M196.200 213.646 C 195.980 213.870,195.208 214.403,194.484 214.830 C 193.667 215.313,192.884 216.271,192.418 217.357 C 191.278 220.017,190.466 220.400,185.972 220.400 C 181.857 220.400,182.232 220.256,179.100 223.031 C 178.495 223.568,178.000 224.261,178.000 224.572 C 178.000 225.550,176.034 227.527,174.587 228.004 C 173.824 228.256,173.196 228.583,173.191 228.731 C 173.186 228.879,172.556 229.695,171.791 230.544 C 170.405 232.082,170.400 232.104,170.400 235.955 C 170.400 240.468,170.019 241.277,167.357 242.418 C 166.273 242.883,165.311 243.669,164.827 244.484 C 164.398 245.208,163.857 246.017,163.624 246.283 C 163.056 246.931,163.025 346.800,163.592 346.800 C 163.808 346.800,164.098 347.251,164.236 347.801 C 164.516 348.916,166.537 350.800,167.453 350.800 C 169.301 350.800,170.400 353.211,170.400 357.261 C 170.400 359.937,170.564 361.307,170.927 361.671 C 171.216 361.962,171.783 362.704,172.186 363.320 C 172.588 363.936,173.746 364.836,174.759 365.320 C 176.068 365.946,176.865 366.684,177.516 367.875 C 179.738 371.936,181.240 372.800,186.085 372.800 C 190.386 372.800,191.290 373.210,192.243 375.592 C 192.848 377.102,194.343 378.713,195.925 379.560 C 197.019 380.145,338.653 380.188,340.190 379.604 C 341.435 379.130,342.972 377.453,343.670 375.805 C 344.705 373.360,345.807 372.827,349.854 372.813 C 355.078 372.795,356.312 372.120,358.303 368.199 C 358.900 367.023,359.752 366.239,361.512 365.250 C 364.902 363.343,365.596 361.971,365.613 357.146 C 365.628 352.974,365.954 352.261,368.424 350.993 C 373.210 348.537,372.800 353.645,372.800 296.534 C 372.800 239.020,373.277 244.796,368.314 242.191 C 365.845 240.895,365.600 240.335,365.600 236.000 C 365.600 231.170,364.877 229.928,360.611 227.428 C 359.314 226.667,358.540 225.868,358.125 224.862 C 357.491 223.321,356.107 221.600,355.502 221.600 C 355.304 221.600,354.873 221.330,354.543 221.000 C 354.094 220.551,352.966 220.397,350.071 220.387 C 345.716 220.373,344.604 219.820,343.469 217.104 C 342.871 215.671,341.081 214.000,340.146 214.000 C 339.846 214.000,339.600 213.820,339.600 213.600 C 339.600 213.040,196.751 213.087,196.200 213.646 M340.111 216.565 C 340.502 216.862,341.354 218.202,342.004 219.544 C 343.530 222.694,344.634 223.200,349.983 223.200 C 354.394 223.200,354.694 223.386,356.842 227.435 C 357.663 228.982,358.229 229.528,359.502 230.002 C 362.588 231.150,362.800 231.565,362.800 236.462 L 362.800 240.799 364.347 242.300 C 366.411 244.301,367.072 244.800,367.657 244.800 C 367.927 244.800,368.565 245.191,369.074 245.670 L 370.000 246.539 369.986 296.570 L 369.971 346.600 369.086 347.646 C 368.599 348.221,367.688 348.814,367.063 348.963 C 366.437 349.112,365.267 349.873,364.463 350.654 L 363.000 352.073 362.867 356.537 C 362.721 361.416,362.277 362.443,360.073 362.996 C 358.718 363.336,356.513 365.609,356.156 367.035 C 355.583 369.316,354.219 369.973,350.028 369.987 C 344.679 370.005,341.600 371.783,341.600 374.853 C 341.600 375.234,341.077 375.918,340.438 376.373 L 339.277 377.200 267.964 377.200 L 196.652 377.200 195.726 376.330 C 195.217 375.852,194.800 375.132,194.800 374.730 C 194.800 374.329,194.665 373.995,194.500 373.989 C 194.335 373.983,193.770 373.281,193.244 372.428 C 191.944 370.319,191.026 370.000,186.251 370.000 C 181.723 370.000,180.828 369.566,180.242 367.090 C 180.098 366.479,179.656 365.669,179.260 365.290 C 177.919 364.005,176.229 362.800,175.767 362.800 C 173.909 362.800,173.200 361.242,173.200 357.158 C 173.200 351.975,172.680 350.681,170.116 349.483 C 169.062 348.991,167.705 348.154,167.100 347.622 L 166.000 346.656 166.000 296.555 L 166.000 246.454 167.162 245.627 C 167.801 245.172,168.521 244.800,168.762 244.800 C 169.003 244.800,169.200 244.642,169.200 244.449 C 169.200 244.255,169.761 243.865,170.447 243.580 C 172.625 242.678,173.197 241.178,173.199 236.362 C 173.200 231.637,173.308 231.413,176.159 230.236 C 178.136 229.419,179.419 228.136,180.236 226.159 C 181.413 223.308,181.637 223.200,186.362 223.199 C 191.178 223.197,192.678 222.625,193.580 220.447 C 193.865 219.761,194.255 219.200,194.449 219.200 C 194.642 219.200,194.800 219.003,194.800 218.762 C 194.800 218.521,195.172 217.801,195.627 217.162 L 196.454 216.000 267.927 216.013 C 327.270 216.023,339.521 216.117,340.111 216.565 " stroke="none" fill="#408480" fill-rule="evenodd"></path><path id="path4" d="M195.629 24.254 C 195.173 24.834,194.801 25.509,194.801 25.754 C 194.802 25.999,195.160 25.615,195.596 24.900 L 196.388 23.600 267.894 23.613 C 323.476 23.623,339.540 23.734,340.029 24.113 C 340.375 24.381,340.865 24.960,341.117 25.400 C 341.369 25.840,341.581 25.966,341.588 25.681 C 341.595 25.395,341.124 24.720,340.542 24.181 L 339.483 23.200 267.971 23.200 L 196.458 23.200 195.629 24.254 M193.413 27.828 C 192.990 28.614,192.184 29.506,191.622 29.812 C 191.060 30.118,190.833 30.375,191.118 30.384 C 191.742 30.403,194.800 27.256,194.800 26.595 C 194.800 25.956,194.073 26.602,193.413 27.828 M341.604 26.553 C 341.589 27.951,344.776 30.957,345.503 30.231 C 345.608 30.125,345.221 29.920,344.643 29.775 C 343.993 29.612,343.214 28.880,342.600 27.856 C 342.054 26.945,341.606 26.359,341.604 26.553 M181.227 31.371 C 180.725 31.906,180.409 32.581,180.526 32.871 C 180.676 33.248,180.746 33.217,180.768 32.762 C 180.840 31.312,182.099 30.835,186.214 30.699 L 190.200 30.567 186.170 30.484 C 182.366 30.405,182.088 30.455,181.227 31.371 M349.786 30.699 C 353.827 30.833,355.200 31.331,355.200 32.662 C 355.200 32.958,355.380 33.200,355.600 33.200 C 356.333 33.200,356.013 32.373,354.900 31.393 C 353.879 30.494,353.514 30.430,349.800 30.496 L 345.800 30.567 349.786 30.699 M180.000 33.986 C 180.000 34.464,178.018 36.521,176.973 37.127 C 176.548 37.374,176.432 37.581,176.716 37.588 C 177.335 37.602,180.400 34.644,180.400 34.031 C 180.400 33.794,180.310 33.600,180.200 33.600 C 180.090 33.600,180.000 33.774,180.000 33.986 M356.000 33.842 C 356.000 34.981,358.541 37.607,359.600 37.562 C 359.930 37.548,359.744 37.369,359.186 37.164 C 358.629 36.959,357.684 36.037,357.086 35.115 C 356.489 34.194,356.000 33.621,356.000 33.842 M174.254 38.429 C 173.674 38.885,173.214 39.470,173.232 39.729 C 173.252 40.028,173.341 40.006,173.476 39.667 C 173.593 39.374,174.254 38.790,174.944 38.369 C 175.635 37.948,175.999 37.602,175.754 37.601 C 175.509 37.601,174.834 37.973,174.254 38.429 M361.526 38.712 C 362.116 39.324,362.676 39.774,362.768 39.711 C 362.999 39.555,361.135 37.600,360.756 37.600 C 360.588 37.600,360.935 38.101,361.526 38.712 M172.472 41.801 C 172.220 42.354,171.381 43.108,170.607 43.477 C 169.265 44.117,168.745 44.800,169.600 44.800 C 169.820 44.800,170.000 44.649,170.000 44.464 C 170.000 44.280,170.440 43.928,170.979 43.682 C 171.965 43.233,173.470 41.337,173.119 40.986 C 173.015 40.882,172.724 41.249,172.472 41.801 M362.800 41.196 C 362.800 41.415,363.365 42.090,364.056 42.697 C 364.746 43.304,365.565 44.046,365.875 44.348 C 366.185 44.649,366.565 44.759,366.719 44.593 C 366.874 44.427,366.730 44.197,366.400 44.083 C 366.070 43.968,365.125 43.183,364.300 42.337 C 363.475 41.491,362.800 40.978,362.800 41.196 M167.100 45.646 L 166.000 46.467 166.000 78.806 L 166.000 111.146 167.162 111.973 C 167.801 112.428,168.476 112.797,168.662 112.793 C 168.848 112.790,168.415 112.412,167.700 111.954 L 166.400 111.121 166.400 78.800 L 166.400 46.479 167.700 45.646 C 168.415 45.188,168.820 44.816,168.600 44.819 C 168.380 44.823,167.705 45.195,167.100 45.646 M368.546 45.629 L 369.600 46.458 369.600 78.800 L 369.600 111.142 368.546 111.971 C 367.966 112.427,367.665 112.800,367.876 112.800 C 368.088 112.800,368.652 112.383,369.130 111.874 L 370.000 110.948 370.000 78.744 L 370.000 46.539 369.074 45.670 C 368.565 45.191,368.001 44.800,367.820 44.800 C 367.640 44.800,367.966 45.173,368.546 45.629 M52.700 74.193 C 51.587 75.173,51.267 76.000,52.000 76.000 C 52.220 76.000,52.400 75.758,52.400 75.462 C 52.400 73.556,51.612 73.600,86.070 73.600 C 121.018 73.600,118.935 73.476,119.716 75.600 C 119.905 76.114,119.941 76.110,119.968 75.570 C 119.986 75.223,119.583 74.548,119.074 74.070 L 118.148 73.200 85.974 73.213 L 53.800 73.225 52.700 74.193 M50.588 77.875 C 50.160 78.669,49.268 79.555,48.605 79.844 C 47.942 80.132,47.637 80.376,47.926 80.384 C 49.136 80.420,52.166 77.232,51.528 76.595 C 51.438 76.505,51.015 77.081,50.588 77.875 M120.012 76.716 C 119.996 77.398,122.989 80.403,123.669 80.388 C 123.962 80.381,123.842 80.173,123.400 79.922 C 122.478 79.399,121.028 77.923,120.433 76.902 C 120.190 76.485,120.019 76.409,120.012 76.716 M45.627 81.371 C 45.125 81.906,44.809 82.581,44.926 82.871 C 45.070 83.234,45.147 83.189,45.168 82.729 C 45.186 82.360,45.674 81.685,46.254 81.229 C 46.834 80.773,47.135 80.400,46.924 80.400 C 46.712 80.400,46.129 80.837,45.627 81.371 M125.192 80.914 C 125.738 81.190,126.410 81.862,126.686 82.408 C 126.994 83.017,127.190 83.156,127.194 82.770 C 127.201 81.998,125.563 80.398,124.774 80.406 C 124.458 80.409,124.646 80.638,125.192 80.914 M43.242 85.176 C 42.715 86.030,41.905 86.913,41.442 87.138 C 40.979 87.362,40.825 87.558,41.100 87.573 C 41.606 87.600,42.270 87.006,43.900 85.066 C 44.850 83.934,44.991 83.593,44.500 83.611 C 44.335 83.617,43.769 84.321,43.242 85.176 M127.212 83.931 C 127.197 84.611,130.202 87.604,130.884 87.588 C 131.191 87.581,131.115 87.410,130.698 87.167 C 129.677 86.572,128.201 85.122,127.678 84.200 C 127.427 83.758,127.219 83.638,127.212 83.931 M38.455 88.542 C 37.643 89.406,37.580 89.810,37.701 93.442 L 37.833 97.400 37.916 93.329 C 37.996 89.454,38.051 89.218,39.054 88.429 C 39.634 87.973,39.935 87.600,39.724 87.600 C 39.512 87.600,38.941 88.024,38.455 88.542 M132.686 88.387 L 133.972 89.171 134.101 93.286 L 134.231 97.400 134.316 93.329 C 134.402 89.150,133.732 87.595,131.846 87.601 C 131.601 87.602,131.979 87.956,132.686 88.387 M37.065 98.481 C 36.938 98.987,36.071 99.895,35.137 100.500 C 34.204 101.105,33.601 101.600,33.798 101.600 C 35.107 101.600,38.153 98.420,37.485 97.751 C 37.381 97.648,37.192 97.976,37.065 98.481 M134.416 98.011 C 134.383 99.279,136.955 101.656,138.280 101.582 C 138.456 101.573,137.912 101.201,137.070 100.758 C 136.161 100.278,135.315 99.433,134.986 98.675 C 134.681 97.974,134.424 97.675,134.416 98.011 M31.300 102.785 L 30.400 103.927 30.400 200.179 L 30.400 296.432 31.275 297.616 C 31.757 298.267,32.432 298.786,32.775 298.768 C 33.300 298.742,33.306 298.700,32.814 298.506 C 30.672 297.664,30.828 305.306,30.813 200.162 C 30.799 95.058,30.655 102.400,32.731 102.400 C 32.989 102.400,33.200 102.220,33.200 102.000 C 33.200 101.235,32.195 101.651,31.300 102.785 M138.800 101.914 C 138.800 102.086,139.340 102.546,140.000 102.936 L 141.200 103.645 141.200 200.087 L 141.200 296.529 139.928 297.664 C 139.228 298.289,138.794 298.800,138.964 298.800 C 139.133 298.800,139.796 298.306,140.436 297.701 L 141.600 296.603 141.600 200.190 L 141.600 103.778 140.359 102.689 C 139.041 101.532,138.800 101.413,138.800 101.914 M170.000 113.600 C 170.507 114.040,171.078 114.400,171.267 114.400 C 171.457 114.400,171.968 114.985,172.404 115.700 C 172.840 116.415,173.198 116.754,173.199 116.453 C 173.200 115.799,170.195 112.800,169.538 112.800 C 169.285 112.800,169.493 113.160,170.000 113.600 M364.447 114.447 C 363.541 115.353,362.800 116.281,362.800 116.509 C 362.800 116.738,363.229 116.425,363.753 115.815 C 364.277 115.205,365.205 114.277,365.815 113.753 C 366.425 113.229,366.738 112.800,366.509 112.800 C 366.281 112.800,365.353 113.541,364.447 114.447 M173.232 117.871 C 173.195 118.409,175.082 120.001,175.754 119.999 C 175.999 119.998,175.635 119.652,174.944 119.231 C 174.254 118.810,173.593 118.226,173.476 117.933 C 173.341 117.594,173.252 117.572,173.232 117.871 M361.526 118.888 C 360.935 119.499,360.588 120.000,360.756 120.000 C 361.135 120.000,362.999 118.045,362.768 117.889 C 362.676 117.826,362.116 118.276,361.526 118.888 M176.902 120.433 C 177.923 121.028,179.399 122.478,179.922 123.400 C 180.173 123.842,180.381 123.962,180.388 123.669 C 180.403 122.989,177.398 119.996,176.716 120.012 C 176.409 120.019,176.485 120.190,176.902 120.433 M358.498 120.331 C 357.819 120.762,356.000 123.257,356.000 123.758 C 356.000 123.979,356.489 123.406,357.086 122.485 C 357.684 121.563,358.629 120.641,359.186 120.436 C 359.744 120.231,359.930 120.052,359.600 120.038 C 359.270 120.024,358.774 120.156,358.498 120.331 M180.406 124.830 C 180.399 125.602,182.037 127.202,182.826 127.194 C 183.142 127.191,182.954 126.962,182.408 126.686 C 181.862 126.410,181.190 125.738,180.914 125.192 C 180.606 124.583,180.410 124.444,180.406 124.830 M355.200 124.938 C 355.200 126.269,353.827 126.767,349.786 126.901 L 345.800 127.033 349.800 127.104 C 353.514 127.170,353.879 127.106,354.900 126.207 C 356.013 125.227,356.333 124.400,355.600 124.400 C 355.380 124.400,355.200 124.642,355.200 124.938 M184.200 127.678 C 185.122 128.201,186.572 129.677,187.167 130.698 C 187.410 131.115,187.581 131.191,187.588 130.884 C 187.604 130.202,184.611 127.197,183.931 127.212 C 183.638 127.219,183.758 127.427,184.200 127.678 M344.153 127.593 C 343.350 127.917,341.598 130.290,341.602 131.047 C 341.603 131.241,342.028 130.699,342.547 129.843 C 343.065 128.986,344.009 128.056,344.645 127.775 C 345.925 127.210,345.495 127.051,344.153 127.593 M187.601 131.846 C 187.601 132.091,187.973 132.766,188.429 133.346 L 189.258 134.400 264.371 134.400 L 339.483 134.400 340.542 133.419 C 341.124 132.880,341.595 132.205,341.588 131.919 C 341.581 131.634,341.369 131.760,341.117 132.200 C 340.865 132.640,340.375 133.219,340.029 133.487 C 339.540 133.866,322.706 133.977,264.294 133.987 L 189.188 134.000 188.396 132.700 C 187.960 131.985,187.602 131.601,187.601 131.846 M195.627 217.162 C 195.172 217.801,194.803 218.476,194.807 218.662 C 194.810 218.848,195.188 218.415,195.646 217.700 L 196.479 216.400 267.950 216.400 L 339.422 216.400 340.511 217.641 C 341.110 218.324,341.600 218.708,341.600 218.496 C 341.600 218.283,341.125 217.635,340.545 217.055 L 339.491 216.000 267.973 216.000 L 196.454 216.000 195.627 217.162 M193.580 220.447 C 193.296 221.133,192.509 222.033,191.832 222.446 C 191.154 222.859,190.839 223.198,191.131 223.199 C 191.754 223.200,194.800 220.061,194.800 219.417 C 194.800 218.726,194.021 219.385,193.580 220.447 M341.619 219.400 C 341.564 220.775,344.743 223.790,345.476 223.057 C 345.567 222.967,345.103 222.705,344.445 222.476 C 343.694 222.214,342.949 221.489,342.442 220.529 C 341.998 219.688,341.628 219.180,341.619 219.400 M181.229 224.254 C 180.773 224.834,180.401 225.509,180.401 225.754 C 180.402 225.999,180.756 225.621,181.187 224.914 L 181.971 223.628 186.086 223.499 L 190.200 223.369 186.129 223.284 C 182.162 223.202,182.037 223.227,181.229 224.254 M349.927 223.499 C 354.026 223.628,354.058 223.636,354.727 224.812 C 355.319 225.853,356.000 226.380,356.000 225.797 C 356.000 224.109,353.774 223.202,349.834 223.284 L 345.800 223.369 349.927 223.499 M180.000 226.747 C 180.000 227.371,177.371 230.000,176.747 230.000 C 176.483 230.000,176.374 230.108,176.506 230.239 C 176.637 230.370,177.273 230.166,177.918 229.785 C 179.139 229.064,180.655 226.922,180.239 226.506 C 180.108 226.374,180.000 226.483,180.000 226.747 M356.004 226.607 C 355.991 227.974,359.144 230.990,359.849 230.285 C 359.952 230.181,359.588 229.983,359.040 229.846 C 358.443 229.696,357.634 228.914,357.025 227.898 C 356.465 226.964,356.006 226.383,356.004 226.607 M174.254 231.229 C 173.227 232.037,173.202 232.162,173.284 236.129 L 173.369 240.200 173.499 236.086 L 173.628 231.971 174.914 231.187 C 175.621 230.756,175.999 230.402,175.754 230.401 C 175.509 230.401,174.834 230.773,174.254 231.229 M361.346 231.229 C 362.349 232.018,362.404 232.254,362.484 236.129 L 362.567 240.200 362.699 236.242 C 362.831 232.257,362.188 230.400,360.676 230.400 C 360.465 230.400,360.766 230.773,361.346 231.229 M172.472 241.801 C 172.220 242.354,171.381 243.108,170.607 243.477 C 169.265 244.117,168.745 244.800,169.600 244.800 C 169.820 244.800,170.000 244.649,170.000 244.464 C 170.000 244.280,170.440 243.928,170.979 243.682 C 171.965 243.233,173.470 241.337,173.119 240.986 C 173.015 240.882,172.724 241.249,172.472 241.801 M362.800 241.196 C 362.800 241.415,363.365 242.090,364.056 242.697 C 364.746 243.304,365.565 244.046,365.875 244.348 C 366.185 244.649,366.565 244.759,366.719 244.593 C 366.874 244.427,366.730 244.197,366.400 244.083 C 366.070 243.968,365.125 243.183,364.300 242.337 C 363.475 241.491,362.800 240.978,362.800 241.196 M167.100 245.646 L 166.000 246.467 166.000 296.535 L 166.000 346.603 167.164 347.701 C 167.804 348.306,168.467 348.800,168.636 348.800 C 168.806 348.800,168.372 348.289,167.672 347.664 L 166.400 346.529 166.400 296.504 L 166.400 246.479 167.700 245.646 C 168.415 245.188,168.820 244.816,168.600 244.819 C 168.380 244.823,167.705 245.195,167.100 245.646 M368.546 245.629 L 369.600 246.458 369.600 296.533 L 369.600 346.608 368.584 347.704 C 368.025 348.307,367.721 348.800,367.909 348.800 C 368.096 348.800,368.643 348.267,369.125 347.616 L 370.000 346.432 370.000 296.486 L 370.000 246.539 369.074 245.670 C 368.565 245.191,368.001 244.800,367.820 244.800 C 367.640 244.800,367.966 245.173,368.546 245.629 M35.115 299.886 C 36.037 300.484,36.959 301.429,37.164 301.986 C 37.369 302.544,37.548 302.730,37.562 302.400 C 37.607 301.341,34.981 298.800,33.842 298.800 C 33.621 298.800,34.194 299.289,35.115 299.886 M136.526 299.580 C 135.229 300.371,134.387 301.525,134.416 302.474 C 134.424 302.763,134.681 302.426,134.986 301.725 C 135.315 300.967,136.161 300.122,137.070 299.642 C 137.912 299.199,138.420 298.828,138.200 298.819 C 137.980 298.810,137.226 299.153,136.526 299.580 M37.684 307.030 C 37.600 311.055,38.234 312.800,39.780 312.800 C 39.960 312.800,39.640 312.432,39.068 311.982 C 38.088 311.211,38.020 310.928,37.898 307.082 L 37.769 303.000 37.684 307.030 M134.084 307.106 L 134.000 311.212 132.700 312.004 C 131.985 312.440,131.615 312.798,131.878 312.799 C 133.736 312.804,134.440 311.120,134.302 307.000 L 134.167 303.000 134.084 307.106 M42.337 314.300 C 43.183 315.125,43.968 316.070,44.083 316.400 C 44.197 316.730,44.427 316.874,44.593 316.719 C 44.759 316.565,44.649 316.185,44.348 315.875 C 44.046 315.565,43.304 314.746,42.697 314.056 C 42.090 313.365,41.415 312.800,41.196 312.800 C 40.978 312.800,41.491 313.475,42.337 314.300 M128.833 314.369 C 127.935 315.231,127.207 316.176,127.216 316.469 C 127.225 316.761,127.501 316.505,127.829 315.900 C 128.157 315.295,128.555 314.800,128.713 314.800 C 128.871 314.799,129.523 314.349,130.162 313.800 C 130.801 313.250,131.131 312.800,130.895 312.800 C 130.659 312.800,129.731 313.506,128.833 314.369 M44.800 317.956 C 44.800 318.335,46.755 320.199,46.911 319.968 C 46.974 319.876,46.524 319.316,45.912 318.726 C 45.301 318.135,44.800 317.788,44.800 317.956 M126.470 318.437 C 126.195 318.877,125.572 319.397,125.085 319.593 C 124.513 319.823,124.423 319.958,124.830 319.975 C 125.480 320.001,127.480 318.146,127.153 317.820 C 127.052 317.719,126.745 317.996,126.470 318.437 M48.414 320.436 C 48.971 320.641,49.916 321.563,50.514 322.485 C 51.111 323.406,51.600 323.979,51.600 323.758 C 51.600 322.619,49.059 319.993,48.000 320.038 C 47.670 320.052,47.856 320.231,48.414 320.436 M121.600 321.600 C 120.720 322.480,120.005 323.425,120.012 323.700 C 120.019 323.976,120.208 323.884,120.434 323.496 C 120.961 322.591,122.591 320.961,123.496 320.434 C 123.884 320.208,123.976 320.019,123.700 320.012 C 123.425 320.005,122.480 320.720,121.600 321.600 M51.600 324.819 C 51.600 325.050,52.095 325.674,52.700 326.207 L 53.800 327.175 86.030 327.187 L 118.261 327.200 119.173 326.229 C 119.675 325.694,119.991 325.019,119.874 324.729 C 119.724 324.352,119.654 324.383,119.632 324.838 C 119.531 326.863,120.621 326.800,85.930 326.800 C 51.196 326.800,52.400 326.869,52.400 324.869 C 52.400 324.611,52.220 324.400,52.000 324.400 C 51.780 324.400,51.600 324.589,51.600 324.819 M170.530 349.642 C 171.439 350.122,172.285 350.967,172.614 351.725 C 172.919 352.426,173.176 352.725,173.184 352.389 C 173.217 351.121,170.645 348.744,169.320 348.818 C 169.144 348.827,169.688 349.199,170.530 349.642 M364.731 349.894 C 363.107 351.228,362.805 351.628,362.838 352.400 C 362.858 352.884,362.906 352.892,363.084 352.444 C 363.459 351.496,364.547 350.339,365.800 349.555 C 366.460 349.141,366.789 348.802,366.531 348.801 C 366.273 348.801,365.463 349.292,364.731 349.894 M173.284 357.071 C 173.198 361.250,173.868 362.805,175.754 362.799 C 175.999 362.798,175.621 362.444,174.914 362.013 L 173.628 361.229 173.499 357.114 L 173.369 353.000 173.284 357.071 M362.484 357.071 C 362.404 360.946,362.349 361.182,361.346 361.971 C 360.766 362.427,360.465 362.800,360.676 362.800 C 362.188 362.800,362.831 360.943,362.699 356.958 L 362.567 353.000 362.484 357.071 M177.438 363.800 C 178.077 364.349,178.729 364.799,178.887 364.800 C 179.045 364.800,179.443 365.295,179.771 365.900 C 180.099 366.505,180.375 366.761,180.384 366.469 C 180.403 365.852,177.342 362.800,176.705 362.800 C 176.469 362.800,176.799 363.250,177.438 363.800 M358.594 363.106 C 357.812 363.671,356.000 366.065,356.001 366.531 C 356.002 366.789,356.341 366.460,356.755 365.800 C 357.539 364.547,358.696 363.459,359.644 363.084 C 360.092 362.906,360.084 362.858,359.600 362.838 C 359.270 362.824,358.817 362.944,358.594 363.106 M180.400 367.876 C 180.400 369.388,182.257 370.031,186.242 369.899 L 190.200 369.767 186.129 369.684 C 182.254 369.604,182.018 369.549,181.229 368.546 C 180.773 367.966,180.400 367.665,180.400 367.876 M354.681 368.613 C 354.007 369.540,353.713 369.605,349.881 369.684 L 345.800 369.767 349.719 369.898 C 353.571 370.027,355.875 369.292,355.978 367.900 C 356.022 367.298,355.382 367.649,354.681 368.613 M191.442 370.462 C 191.905 370.687,192.715 371.570,193.242 372.424 C 193.769 373.279,194.335 373.983,194.500 373.989 C 194.991 374.007,194.850 373.666,193.900 372.534 C 192.270 370.594,191.606 370.000,191.100 370.027 C 190.825 370.042,190.979 370.238,191.442 370.462 M344.316 370.328 C 343.569 370.625,341.600 373.112,341.600 373.758 C 341.600 373.979,342.073 373.431,342.651 372.539 C 343.229 371.648,344.174 370.731,344.751 370.502 C 345.328 370.273,345.620 370.079,345.400 370.071 C 345.180 370.063,344.692 370.179,344.316 370.328 M194.832 374.830 C 194.814 375.177,195.217 375.852,195.726 376.330 L 196.652 377.200 267.964 377.200 L 339.277 377.200 340.438 376.373 C 341.077 375.918,341.586 375.243,341.568 374.873 C 341.543 374.325,341.496 374.312,341.320 374.800 C 340.555 376.919,345.640 376.781,267.962 376.791 C 190.029 376.801,195.878 376.961,195.084 374.800 C 194.895 374.286,194.859 374.290,194.832 374.830 " stroke="none" fill="#400484" fill-rule="evenodd"></path></g></svg>