<svg id="svg" version="1.1" xmlns="http://www.w3.org/2000/svg" xmlns:xlink="http://www.w3.org/1999/xlink" width="400" height="400" viewBox="0, 0, 400,400"><g id="svgg"><path id="path0" d="M0.000 200.000 L 0.000 400.000 200.000 400.000 L 400.000 400.000 400.000 200.000 L 400.000 0.000 200.000 0.000 L 0.000 0.000 0.000 200.000 M120.416 77.563 C 121.895 78.225,122.260 78.656,123.186 80.837 C 124.215 83.262,124.339 83.385,126.781 84.422 C 129.080 85.398,129.388 85.673,130.161 87.448 C 131.440 90.385,131.970 91.200,132.603 91.200 C 136.132 91.200,138.000 94.239,138.000 99.982 C 138.000 103.968,138.487 105.200,140.062 105.200 C 140.468 105.200,140.800 105.347,140.800 105.526 C 140.800 105.705,141.430 106.152,142.200 106.519 C 142.970 106.887,143.600 107.357,143.600 107.565 C 143.600 107.773,143.915 108.258,144.300 108.643 C 145.469 109.811,145.581 283.038,144.415 284.383 C 143.980 284.885,143.527 285.601,143.408 285.975 C 143.199 286.634,140.844 288.000,139.918 288.000 C 138.466 288.000,138.000 289.275,138.000 293.254 C 138.000 298.292,137.371 300.021,135.177 301.011 C 134.309 301.402,133.600 301.874,133.600 302.061 C 133.600 302.247,133.262 302.400,132.849 302.400 C 131.879 302.400,131.227 303.212,130.218 305.678 C 129.502 307.426,129.151 307.780,127.400 308.525 C 124.810 309.625,123.861 310.569,122.994 312.906 C 121.615 316.622,124.190 316.400,82.382 316.400 C 40.593 316.400,43.198 316.622,41.808 312.945 C 40.918 310.590,39.946 309.622,37.365 308.516 C 35.621 307.769,35.303 307.434,34.537 305.537 C 33.956 304.100,33.301 303.203,32.537 302.800 C 31.911 302.470,31.304 302.072,31.186 301.916 C 31.068 301.759,30.326 301.361,29.536 301.031 C 27.490 300.176,26.800 298.233,26.800 293.323 C 26.800 289.360,26.319 288.000,24.918 288.000 C 24.255 288.000,22.033 286.890,21.371 286.229 C 19.498 284.355,19.600 289.487,19.600 196.828 C 19.600 100.206,19.357 107.972,22.423 106.589 C 23.291 106.198,24.000 105.726,24.000 105.539 C 24.000 105.353,24.301 105.200,24.669 105.200 C 26.340 105.200,26.800 104.072,26.800 99.971 C 26.800 94.371,27.485 92.918,30.726 91.649 C 33.055 90.736,35.200 88.019,35.200 85.979 C 35.200 85.760,35.611 85.424,36.113 85.233 C 40.029 83.744,40.671 83.221,41.647 80.728 C 43.285 76.543,39.972 76.861,82.256 76.828 C 117.289 76.801,118.779 76.830,120.416 77.563 M256.200 77.556 C 257.485 78.149,257.954 78.679,258.580 80.247 C 259.596 82.792,260.384 83.593,262.843 84.584 C 264.633 85.304,264.973 85.637,265.736 87.418 C 266.839 89.996,267.733 90.890,270.151 91.836 C 272.786 92.867,273.332 94.128,273.596 99.786 L 273.800 104.173 275.000 104.786 C 275.660 105.124,276.296 105.528,276.414 105.684 C 276.532 105.841,277.274 106.239,278.064 106.569 C 281.027 107.807,280.800 100.327,280.800 196.797 L 280.800 283.179 279.964 284.899 C 279.295 286.277,278.757 286.768,277.264 287.363 C 273.516 288.858,273.600 288.724,273.600 293.201 C 273.600 298.241,272.926 300.169,270.864 301.031 C 270.074 301.361,269.332 301.759,269.214 301.916 C 269.096 302.072,268.486 302.488,267.858 302.840 C 267.104 303.262,266.423 304.207,265.858 305.613 C 265.091 307.519,264.792 307.831,263.046 308.545 C 260.577 309.555,259.472 310.661,258.568 313.029 C 257.202 316.604,259.880 316.381,218.151 316.391 C 176.197 316.401,178.799 316.624,177.392 312.906 C 176.534 310.642,175.586 309.230,174.911 309.213 C 173.168 309.168,170.780 307.372,170.135 305.622 C 169.316 303.396,168.512 302.400,167.538 302.400 C 167.132 302.400,166.800 302.232,166.800 302.027 C 166.800 301.822,166.434 301.538,165.987 301.396 C 163.355 300.561,162.400 298.388,162.400 293.236 C 162.400 288.806,162.291 288.611,159.155 287.456 C 157.668 286.908,157.172 286.468,156.595 285.188 C 156.201 284.315,155.726 283.600,155.539 283.600 C 155.121 283.600,155.082 110.119,155.500 109.933 C 155.665 109.860,156.105 109.140,156.477 108.334 C 156.956 107.298,157.571 106.717,158.577 106.354 C 159.360 106.071,160.000 105.695,160.000 105.520 C 160.000 105.344,160.211 105.200,160.469 105.200 C 161.934 105.200,162.400 103.935,162.400 99.957 C 162.400 94.388,164.342 91.200,167.734 91.200 C 168.420 91.200,169.189 90.065,170.225 87.524 C 170.882 85.913,171.274 85.525,172.995 84.779 C 174.098 84.301,175.259 83.782,175.575 83.627 C 175.891 83.472,176.630 82.213,177.217 80.831 C 179.044 76.527,175.551 76.869,218.000 76.841 C 252.763 76.819,254.680 76.855,256.200 77.556 M348.807 77.450 C 350.011 77.931,350.586 78.470,351.031 79.536 C 351.361 80.326,351.759 81.068,351.916 81.186 C 352.072 81.304,352.470 81.911,352.800 82.537 C 353.203 83.301,354.100 83.956,355.537 84.537 C 357.434 85.303,357.769 85.621,358.516 87.365 C 359.622 89.946,360.590 90.918,362.945 91.808 C 366.768 93.253,366.400 82.443,366.400 193.249 C 366.400 301.874,366.627 293.126,363.795 293.837 C 363.248 293.974,362.800 294.235,362.800 294.416 C 362.800 294.598,362.395 294.874,361.900 295.031 C 359.467 295.801,359.227 296.297,359.204 300.600 C 359.165 307.807,357.767 309.189,350.492 309.213 C 346.307 309.226,345.798 309.477,345.031 311.900 C 344.874 312.395,344.598 312.800,344.416 312.800 C 344.235 312.800,343.974 313.248,343.837 313.795 C 343.225 316.233,342.027 316.401,325.316 316.391 C 308.035 316.381,307.348 316.274,306.413 313.439 C 306.152 312.648,305.772 312.000,305.569 312.000 C 305.366 312.000,305.194 311.775,305.187 311.500 C 305.161 310.550,303.793 309.374,301.859 308.639 C 299.132 307.604,298.425 305.963,298.396 300.600 C 298.373 296.297,298.133 295.801,295.700 295.031 C 295.205 294.874,294.800 294.598,294.800 294.416 C 294.800 294.235,294.352 293.974,293.805 293.837 C 290.976 293.127,291.199 301.451,291.209 196.716 C 291.219 90.186,290.866 100.447,294.571 99.032 C 297.922 97.753,298.400 96.954,298.400 92.633 C 298.400 87.367,299.230 85.541,302.108 84.476 C 303.555 83.940,304.385 83.351,304.800 82.565 C 305.130 81.940,305.625 81.185,305.899 80.886 C 306.174 80.588,306.514 79.887,306.654 79.328 C 306.826 78.644,307.446 78.068,308.554 77.565 C 310.912 76.494,346.168 76.393,348.807 77.450 " stroke="none" fill="#fcfcfc" fill-rule="evenodd"></path><path id="path1" d="M45.313 80.500 C 44.612 80.995,43.625 82.205,43.119 83.190 C 42.605 84.190,41.680 85.248,41.021 85.590 C 39.502 86.376,36.376 89.502,35.590 91.021 C 35.247 91.683,34.193 92.602,33.185 93.118 C 30.286 94.601,29.600 95.974,29.600 100.296 C 29.600 102.760,29.431 104.114,29.078 104.471 C 28.790 104.762,28.439 105.307,28.297 105.683 C 28.031 106.384,25.142 108.400,24.402 108.400 C 24.174 108.400,23.632 108.985,23.196 109.700 C 22.207 111.321,21.923 281.243,22.906 283.168 C 23.178 283.701,24.210 284.584,25.200 285.131 C 26.190 285.679,27.207 286.413,27.459 286.763 C 27.711 287.113,28.296 287.833,28.759 288.361 C 29.481 289.187,29.600 289.836,29.602 292.961 C 29.605 297.361,30.131 298.445,33.002 299.963 C 34.223 300.608,35.218 301.480,35.566 302.209 C 35.878 302.864,36.347 303.580,36.608 303.800 C 36.869 304.020,37.381 304.650,37.745 305.200 C 38.109 305.750,39.247 306.650,40.274 307.200 C 41.592 307.906,42.415 308.718,43.070 309.962 C 43.581 310.931,44.350 311.970,44.780 312.271 C 45.209 312.572,45.827 313.084,46.152 313.409 C 46.664 313.922,51.480 314.000,82.428 314.000 L 118.113 314.000 119.808 312.256 C 120.740 311.297,121.750 309.996,122.052 309.365 C 122.369 308.704,123.406 307.791,124.500 307.209 C 125.587 306.631,126.855 305.516,127.468 304.600 C 128.057 303.720,128.656 302.910,128.799 302.800 C 128.942 302.690,129.172 302.293,129.310 301.917 C 129.568 301.217,132.454 299.200,133.198 299.200 C 134.347 299.200,135.197 296.598,135.199 293.074 C 135.200 288.517,135.973 287.148,139.715 285.072 C 140.642 284.557,141.622 283.701,141.894 283.168 C 142.877 281.243,142.593 111.321,141.604 109.700 C 141.168 108.985,140.618 108.400,140.382 108.400 C 137.448 108.400,135.200 104.754,135.200 99.996 C 135.200 96.087,134.500 94.666,131.971 93.435 C 130.426 92.684,128.400 90.745,128.400 90.019 C 128.400 89.426,125.130 86.278,123.799 85.590 C 123.150 85.255,122.345 84.455,122.010 83.813 C 121.674 83.171,120.739 81.960,119.931 81.123 L 118.463 79.600 82.526 79.600 L 46.589 79.600 45.313 80.500 M180.547 81.028 C 179.806 81.814,179.200 82.651,179.200 82.888 C 179.200 83.263,178.520 83.963,175.566 86.628 C 175.218 86.943,174.732 87.200,174.487 87.200 C 173.952 87.200,172.192 89.473,171.850 90.604 C 171.628 91.338,168.088 93.996,167.324 94.003 C 166.154 94.013,165.200 96.742,165.200 100.076 C 165.200 104.785,164.689 105.838,161.499 107.700 C 160.052 108.545,158.725 109.646,158.464 110.219 C 157.882 111.497,157.788 281.390,158.369 282.918 C 158.571 283.451,159.558 284.368,160.562 284.957 C 164.554 287.296,165.200 288.425,165.201 293.074 C 165.203 296.617,166.053 299.200,167.218 299.200 C 167.857 299.200,171.600 301.728,171.600 302.159 C 171.600 302.756,174.048 306.400,174.450 306.400 C 175.141 306.400,178.038 308.434,178.293 309.099 C 178.593 309.881,179.334 310.845,181.040 312.672 L 182.281 314.000 218.140 314.000 C 237.863 314.000,254.000 313.859,254.000 313.686 C 254.000 313.514,254.513 313.070,255.139 312.700 C 255.766 312.330,256.713 311.182,257.244 310.150 C 257.950 308.777,258.720 307.994,260.106 307.236 C 261.149 306.666,262.306 305.750,262.678 305.200 C 263.050 304.650,263.533 304.078,263.753 303.929 C 263.972 303.781,264.433 303.065,264.776 302.339 C 265.188 301.468,266.080 300.659,267.397 299.963 C 270.279 298.440,270.795 297.368,270.798 292.900 C 270.799 290.865,270.935 289.195,271.100 289.189 C 271.265 289.183,271.825 288.489,272.344 287.647 C 272.904 286.738,273.897 285.846,274.784 285.455 C 278.141 283.974,277.787 294.008,277.899 197.058 C 278.012 99.629,278.382 109.637,274.598 107.637 C 273.371 106.989,272.385 106.123,272.039 105.391 C 271.729 104.736,271.324 104.140,271.138 104.067 C 270.952 103.993,270.800 102.294,270.800 100.291 C 270.800 95.970,270.111 94.596,267.204 93.118 C 266.075 92.543,265.154 91.708,264.744 90.886 C 263.946 89.288,260.935 86.300,259.365 85.548 C 258.700 85.229,257.794 84.197,257.209 83.092 C 255.198 79.292,258.733 79.606,217.847 79.603 L 181.894 79.600 180.547 81.028 M309.846 80.305 C 309.212 80.690,308.220 81.900,307.642 82.993 C 307.064 84.086,306.143 85.204,305.596 85.477 C 305.049 85.750,304.080 86.384,303.443 86.886 C 300.775 88.991,300.801 88.931,300.781 92.900 C 300.757 97.489,300.129 98.961,297.634 100.274 C 296.663 100.785,295.357 101.776,294.732 102.476 L 293.595 103.750 293.697 197.030 L 293.800 290.310 294.800 291.147 C 295.350 291.608,296.571 292.367,297.513 292.834 C 300.030 294.083,300.800 295.846,300.800 300.359 C 300.800 304.479,301.393 305.511,304.791 307.308 C 306.106 308.003,306.845 308.769,307.580 310.197 C 308.130 311.266,309.079 312.424,309.688 312.770 C 310.297 313.117,310.796 313.535,310.797 313.700 C 310.799 313.865,317.280 314.000,325.200 314.000 C 334.533 314.000,339.600 313.859,339.600 313.600 C 339.600 313.380,339.861 313.200,340.180 313.200 C 340.852 313.200,342.558 311.087,343.156 309.515 C 343.855 307.677,346.194 306.800,350.397 306.800 C 355.690 306.800,356.800 305.690,356.800 300.397 C 356.800 296.194,357.677 293.855,359.515 293.156 C 361.087 292.558,363.200 290.852,363.200 290.180 C 363.200 289.861,363.380 289.600,363.600 289.600 C 364.325 289.600,364.135 96.878,363.409 96.152 C 363.084 95.827,362.572 95.209,362.271 94.780 C 361.970 94.350,360.931 93.581,359.962 93.070 C 358.718 92.415,357.906 91.592,357.200 90.274 C 356.650 89.247,355.750 88.109,355.200 87.745 C 354.650 87.381,354.020 86.869,353.800 86.608 C 353.580 86.347,352.864 85.878,352.209 85.566 C 351.480 85.218,350.608 84.223,349.963 83.002 C 348.084 79.447,349.063 79.604,328.800 79.604 C 312.546 79.604,310.900 79.665,309.846 80.305 " stroke="none" fill="#040404" fill-rule="evenodd"></path><path id="path2" d="" stroke="none" fill="#bc10080" fill-rule="evenodd"></path><path id="path3" d="" stroke="none" fill="#bc10080" fill-rule="evenodd"></path><path id="path4" d="" stroke="none" fill="#bc10080" fill-rule="evenodd"></path></g></svg>