<svg id="svg" version="1.1" xmlns="http://www.w3.org/2000/svg" xmlns:xlink="http://www.w3.org/1999/xlink" width="400" height="400" viewBox="0, 0, 400,400"><g id="svgg"><path id="path0" d="M0.000 200.000 L 0.000 400.000 200.000 400.000 L 400.000 400.000 400.000 200.000 L 400.000 0.000 200.000 0.000 L 0.000 0.000 0.000 200.000 M355.384 12.794 C 357.133 13.459,359.173 16.063,359.213 17.680 C 359.229 18.378,360.605 19.320,362.848 20.169 C 364.652 20.852,365.584 22.135,366.531 25.236 C 366.708 25.814,370.711 28.000,371.592 28.000 C 372.610 28.000,373.600 31.736,373.600 35.575 C 373.600 40.101,373.856 40.545,377.185 41.800 C 381.160 43.298,380.800 36.052,380.800 114.622 L 380.800 183.179 379.964 184.899 C 379.295 186.277,378.757 186.768,377.264 187.363 C 373.516 188.858,373.600 188.724,373.600 193.201 C 373.600 198.241,372.926 200.169,370.864 201.031 C 370.074 201.361,369.332 201.759,369.214 201.916 C 369.096 202.072,368.476 202.494,367.836 202.853 C 367.041 203.299,366.425 204.166,365.896 205.584 C 364.837 208.423,363.083 209.200,357.731 209.200 C 353.825 209.200,352.459 209.791,352.413 211.500 C 352.406 211.775,352.234 212.000,352.031 212.000 C 351.828 212.000,351.448 212.648,351.187 213.439 C 350.157 216.560,353.021 216.382,303.800 216.382 C 254.579 216.382,257.443 216.560,256.413 213.439 C 256.152 212.648,255.772 212.000,255.569 212.000 C 255.366 212.000,255.194 211.775,255.187 211.500 C 255.141 209.791,253.775 209.200,249.869 209.200 C 244.517 209.200,242.763 208.423,241.704 205.584 C 241.175 204.166,240.559 203.299,239.764 202.853 C 239.124 202.494,238.504 202.072,238.386 201.916 C 238.268 201.759,237.526 201.361,236.736 201.031 C 234.674 200.169,234.000 198.241,234.000 193.201 C 234.000 188.724,234.084 188.858,230.336 187.363 C 228.843 186.768,228.305 186.277,227.636 184.899 L 226.800 183.179 226.800 114.622 C 226.800 36.052,226.440 43.298,230.415 41.800 C 233.744 40.545,234.000 40.101,234.000 35.575 C 234.000 31.736,234.990 28.000,236.008 28.000 C 236.889 28.000,240.892 25.814,241.069 25.236 C 242.016 22.135,242.948 20.852,244.752 20.169 C 246.995 19.320,248.371 18.378,248.387 17.680 C 248.425 16.134,250.451 13.475,252.095 12.814 C 253.368 12.303,354.041 12.283,355.384 12.794 M84.986 99.278 C 86.473 100.000,86.913 100.480,87.465 101.978 C 88.284 104.204,89.088 105.200,90.062 105.200 C 90.468 105.200,90.800 105.347,90.800 105.526 C 90.800 105.705,91.415 106.145,92.166 106.503 C 92.917 106.861,93.649 107.525,93.793 107.977 C 93.936 108.430,94.207 108.800,94.395 108.800 C 94.583 108.800,94.851 109.321,94.991 109.959 C 95.295 111.344,96.130 112.129,97.951 112.740 C 99.428 113.236,100.990 114.709,101.396 115.987 C 101.538 116.434,101.822 116.800,102.027 116.800 C 102.476 116.800,102.549 354.667,102.100 354.867 C 101.935 354.940,101.497 355.655,101.127 356.457 C 100.601 357.595,100.034 358.073,98.527 358.645 C 95.516 359.788,95.229 360.343,95.213 365.039 C 95.202 368.492,95.084 369.211,94.400 370.000 C 93.960 370.507,93.600 371.167,93.600 371.466 C 93.600 371.766,92.745 372.391,91.700 372.857 C 88.753 374.170,88.672 374.218,88.355 374.827 C 88.191 375.142,87.733 376.239,87.338 377.264 C 85.963 380.834,86.180 380.800,64.703 380.800 C 43.297 380.800,43.373 380.810,41.994 377.692 C 41.557 376.706,41.200 375.672,41.200 375.395 C 41.200 374.769,39.973 373.970,37.480 372.970 C 34.775 371.885,34.000 370.070,34.000 364.821 C 34.000 360.383,33.760 359.985,30.228 358.573 C 26.437 357.058,26.819 370.343,26.809 239.511 L 26.800 124.421 27.636 122.701 C 28.305 121.323,28.843 120.832,30.336 120.237 C 34.084 118.742,34.000 118.876,34.000 114.399 C 34.000 109.359,34.674 107.431,36.736 106.569 C 37.526 106.239,38.268 105.841,38.386 105.684 C 38.504 105.528,39.124 105.106,39.764 104.747 C 40.559 104.301,41.175 103.433,41.705 102.013 C 43.058 98.387,42.583 98.461,64.489 98.428 C 82.946 98.400,83.201 98.411,84.986 99.278 M184.986 99.278 C 186.473 100.000,186.913 100.480,187.465 101.978 C 188.284 104.204,189.088 105.200,190.062 105.200 C 190.468 105.200,190.800 105.347,190.800 105.526 C 190.800 105.705,191.415 106.145,192.166 106.503 C 192.917 106.861,193.649 107.525,193.793 107.977 C 193.936 108.430,194.207 108.800,194.395 108.800 C 194.583 108.800,194.851 109.321,194.991 109.959 C 195.295 111.344,196.130 112.129,197.951 112.740 C 199.428 113.236,200.990 114.709,201.396 115.987 C 201.538 116.434,201.822 116.800,202.027 116.800 C 202.476 116.800,202.549 354.667,202.100 354.867 C 201.935 354.940,201.497 355.655,201.127 356.457 C 200.601 357.595,200.034 358.073,198.527 358.645 C 195.516 359.788,195.229 360.343,195.213 365.039 C 195.202 368.492,195.084 369.211,194.400 370.000 C 193.960 370.507,193.600 371.167,193.600 371.466 C 193.600 371.766,192.745 372.391,191.700 372.857 C 188.753 374.170,188.672 374.218,188.355 374.827 C 188.191 375.142,187.733 376.239,187.338 377.264 C 185.963 380.834,186.180 380.800,164.703 380.800 C 143.297 380.800,143.373 380.810,141.994 377.692 C 141.557 376.706,141.200 375.672,141.200 375.395 C 141.200 374.769,139.973 373.970,137.480 372.970 C 134.775 371.885,134.000 370.070,134.000 364.821 C 134.000 360.383,133.760 359.985,130.228 358.573 C 126.437 357.058,126.819 370.343,126.809 239.511 L 126.800 124.421 127.636 122.701 C 128.305 121.323,128.843 120.832,130.336 120.237 C 134.084 118.742,134.000 118.876,134.000 114.399 C 134.000 109.359,134.674 107.431,136.736 106.569 C 137.526 106.239,138.268 105.841,138.386 105.684 C 138.504 105.528,139.124 105.106,139.764 104.747 C 140.559 104.301,141.175 103.433,141.705 102.013 C 143.058 98.387,142.583 98.461,164.489 98.428 C 182.946 98.400,183.201 98.411,184.986 99.278 " stroke="none" fill="#fcfcfc" fill-rule="evenodd"></path><path id="path1" d="M252.500 16.046 C 251.785 16.504,251.200 17.052,251.200 17.263 C 251.200 17.891,248.647 21.600,248.215 21.600 C 247.223 21.600,244.127 24.206,243.439 25.621 C 242.691 27.160,240.749 29.200,240.032 29.200 C 239.826 29.200,239.014 29.806,238.228 30.547 L 236.800 31.894 236.800 35.714 C 236.800 37.815,236.665 39.593,236.500 39.667 C 236.335 39.740,235.925 40.340,235.590 41.000 C 235.238 41.691,234.219 42.589,233.185 43.118 C 232.199 43.622,230.987 44.626,230.492 45.347 L 229.593 46.659 229.697 114.888 C 229.813 191.720,229.471 183.979,232.816 185.455 C 233.703 185.846,234.696 186.738,235.256 187.647 C 235.775 188.489,236.335 189.183,236.500 189.189 C 236.665 189.195,236.801 190.865,236.802 192.900 C 236.805 197.357,237.321 198.437,240.174 199.954 C 241.560 200.691,242.401 201.491,243.017 202.661 C 244.863 206.164,245.944 206.797,250.114 206.819 C 254.813 206.844,256.177 207.457,257.569 210.170 C 258.126 211.254,259.079 212.424,259.688 212.770 C 260.297 213.117,260.796 213.535,260.797 213.700 C 260.799 213.865,280.150 214.000,303.800 214.000 C 327.450 214.000,346.801 213.865,346.803 213.700 C 346.804 213.535,347.303 213.117,347.912 212.770 C 348.521 212.424,349.474 211.254,350.031 210.170 C 351.424 207.454,352.785 206.844,357.500 206.819 C 361.422 206.799,361.322 206.840,363.400 204.369 C 363.840 203.846,364.470 202.878,364.800 202.218 C 365.159 201.499,366.201 200.595,367.397 199.963 C 370.279 198.440,370.795 197.368,370.798 192.900 C 370.799 190.865,370.935 189.195,371.100 189.189 C 371.265 189.183,371.825 188.489,372.344 187.647 C 372.904 186.738,373.897 185.846,374.784 185.455 C 378.129 183.979,377.787 191.720,377.903 114.888 L 378.007 46.659 377.108 45.347 C 376.613 44.626,375.401 43.622,374.415 43.118 C 373.381 42.589,372.362 41.691,372.010 41.000 C 371.675 40.340,371.265 39.740,371.100 39.667 C 370.935 39.593,370.800 37.815,370.800 35.714 L 370.800 31.894 369.372 30.547 C 368.586 29.806,367.749 29.200,367.512 29.200 C 367.135 29.200,365.742 27.815,363.790 25.500 C 363.466 25.115,363.200 24.621,363.200 24.403 C 363.200 23.928,360.072 21.600,359.434 21.600 C 358.964 21.600,356.400 17.929,356.400 17.257 C 356.400 17.041,355.794 16.491,355.053 16.033 C 352.925 14.718,254.554 14.731,252.500 16.046 M45.172 102.028 C 44.468 102.716,43.498 104.026,43.017 104.939 C 42.401 106.109,41.560 106.909,40.174 107.646 C 37.321 109.163,36.805 110.243,36.802 114.700 C 36.801 116.735,36.665 118.405,36.500 118.411 C 36.335 118.417,35.775 119.111,35.256 119.953 C 34.684 120.881,33.702 121.754,32.766 122.167 C 31.915 122.542,30.855 123.313,30.410 123.879 C 29.146 125.485,29.132 353.082,30.395 355.000 C 30.830 355.660,32.043 356.654,33.092 357.209 C 34.239 357.816,35.222 358.692,35.561 359.409 C 35.871 360.064,36.276 360.660,36.462 360.733 C 36.648 360.807,36.800 362.576,36.800 364.665 L 36.800 368.463 38.323 369.931 C 39.160 370.739,40.375 371.674,41.023 372.008 C 41.672 372.344,42.636 373.439,43.173 374.451 C 45.144 378.164,44.164 378.001,64.425 377.994 C 84.297 377.988,83.621 378.080,85.173 375.152 C 85.709 374.141,86.789 372.886,87.573 372.361 C 88.358 371.837,89.144 371.181,89.320 370.904 C 89.496 370.627,89.888 370.400,90.191 370.400 C 91.617 370.400,92.400 368.413,92.400 364.795 C 92.400 360.000,92.953 358.810,95.945 357.165 C 97.244 356.451,98.597 355.374,98.953 354.772 C 99.710 353.490,99.974 119.435,99.220 117.453 C 98.987 116.840,97.914 115.941,96.445 115.127 C 94.467 114.031,93.796 113.367,92.594 111.313 C 91.509 109.457,90.716 108.613,89.470 107.986 C 87.240 106.864,86.340 106.052,85.485 104.390 C 85.091 103.625,84.427 102.550,84.008 102.000 L 83.246 101.000 64.849 100.888 L 46.451 100.777 45.172 102.028 M145.172 102.028 C 144.468 102.716,143.498 104.026,143.017 104.939 C 142.401 106.109,141.560 106.909,140.174 107.646 C 137.321 109.163,136.805 110.243,136.802 114.700 C 136.801 116.735,136.665 118.405,136.500 118.411 C 136.335 118.417,135.775 119.111,135.256 119.953 C 134.684 120.881,133.702 121.754,132.766 122.167 C 131.915 122.542,130.855 123.313,130.410 123.879 C 129.146 125.485,129.132 353.082,130.395 355.000 C 130.830 355.660,132.043 356.654,133.092 357.209 C 134.239 357.816,135.222 358.692,135.561 359.409 C 135.871 360.064,136.276 360.660,136.462 360.733 C 136.648 360.807,136.800 362.576,136.800 364.665 L 136.800 368.463 138.323 369.931 C 139.160 370.739,140.375 371.674,141.023 372.008 C 141.672 372.344,142.636 373.439,143.173 374.451 C 145.144 378.164,144.164 378.001,164.425 377.994 C 184.297 377.988,183.621 378.080,185.173 375.152 C 185.709 374.141,186.789 372.886,187.573 372.361 C 188.358 371.837,189.144 371.181,189.320 370.904 C 189.496 370.627,189.888 370.400,190.191 370.400 C 191.617 370.400,192.400 368.413,192.400 364.795 C 192.400 360.000,192.953 358.810,195.945 357.165 C 197.244 356.451,198.597 355.374,198.953 354.772 C 199.710 353.490,199.974 119.435,199.220 117.453 C 198.987 116.840,197.914 115.941,196.445 115.127 C 194.467 114.031,193.796 113.367,192.594 111.313 C 191.509 109.457,190.716 108.613,189.470 107.986 C 187.240 106.864,186.340 106.052,185.485 104.390 C 185.091 103.625,184.427 102.550,184.008 102.000 L 183.246 101.000 164.849 100.888 L 146.451 100.777 145.172 102.028 " stroke="none" fill="#040404" fill-rule="evenodd"></path><path id="path2" d="" stroke="none" fill="#bc10080" fill-rule="evenodd"></path><path id="path3" d="" stroke="none" fill="#bc10080" fill-rule="evenodd"></path><path id="path4" d="" stroke="none" fill="#bc10080" fill-rule="evenodd"></path></g></svg>