<?xml version="1.0" standalone="no"?>
<!DOCTYPE svg PUBLIC "-//W3C//DTD SVG 1.1//EN" "http://www.w3.org/Graphics/SVG/1.1/DTD/svg11.dtd">
<svg width="4100" height="70" version="1.1" xmlns="http://www.w3.org/2000/svg">
	<desc>{"barcode":"89317271525","name":"Agile Bag","price":"1100.00","details":"Agile Leather Sofa"}</desc>
	<g id="bars" fill="black" stroke="none">
		<rect x="0" y="0" width="8" height="70" />
		<rect x="12" y="0" width="4" height="70" />
		<rect x="24" y="0" width="4" height="70" />
		<rect x="44" y="0" width="16" height="70" />
		<rect x="64" y="0" width="8" height="70" />
		<rect x="76" y="0" width="8" height="70" />
		<rect x="88" y="0" width="8" height="70" />
		<rect x="104" y="0" width="8" height="70" />
		<rect x="120" y="0" width="8" height="70" />
		<rect x="132" y="0" width="4" height="70" />
		<rect x="144" y="0" width="4" height="70" />
		<rect x="164" y="0" width="8" height="70" />
		<rect x="176" y="0" width="4" height="70" />
		<rect x="188" y="0" width="4" height="70" />
		<rect x="196" y="0" width="8" height="70" />
		<rect x="220" y="0" width="4" height="70" />
		<rect x="232" y="0" width="4" height="70" />
		<rect x="244" y="0" width="16" height="70" />
		<rect x="264" y="0" width="4" height="70" />
		<rect x="284" y="0" width="4" height="70" />
		<rect x="292" y="0" width="8" height="70" />
		<rect x="308" y="0" width="4" height="70" />
		<rect x="324" y="0" width="16" height="70" />
		<rect x="344" y="0" width="4" height="70" />
		<rect x="352" y="0" width="4" height="70" />
		<rect x="372" y="0" width="4" height="70" />
		<rect x="384" y="0" width="8" height="70" />
		<rect x="396" y="0" width="4" height="70" />
		<rect x="404" y="0" width="8" height="70" />
		<rect x="420" y="0" width="4" height="70" />
		<rect x="440" y="0" width="8" height="70" />
		<rect x="456" y="0" width="8" height="70" />
		<rect x="472" y="0" width="8" height="70" />
		<rect x="484" y="0" width="12" height="70" />
		<rect x="504" y="0" width="4" height="70" />
		<rect x="516" y="0" width="8" height="70" />
		<rect x="528" y="0" width="8" height="70" />
		<rect x="544" y="0" width="8" height="70" />
		<rect x="560" y="0" width="8" height="70" />
		<rect x="572" y="0" width="4" height="70" />
		<rect x="580" y="0" width="12" height="70" />
		<rect x="596" y="0" width="16" height="70" />
		<rect x="616" y="0" width="8" height="70" />
		<rect x="628" y="0" width="8" height="70" />
		<rect x="640" y="0" width="16" height="70" />
		<rect x="660" y="0" width="8" height="70" />
		<rect x="672" y="0" width="8" height="70" />
		<rect x="692" y="0" width="8" height="70" />
		<rect x="704" y="0" width="4" height="70" />
		<rect x="716" y="0" width="8" height="70" />
		<rect x="740" y="0" width="4" height="70" />
		<rect x="748" y="0" width="4" height="70" />
		<rect x="760" y="0" width="8" height="70" />
		<rect x="772" y="0" width="4" height="70" />
		<rect x="792" y="0" width="8" height="70" />
		<rect x="804" y="0" width="12" height="70" />
		<rect x="828" y="0" width="4" height="70" />
		<rect x="836" y="0" width="4" height="70" />
		<rect x="844" y="0" width="16" height="70" />
		<rect x="864" y="0" width="12" height="70" />
		<rect x="880" y="0" width="8" height="70" />
		<rect x="892" y="0" width="12" height="70" />
		<rect x="912" y="0" width="4" height="70" />
		<rect x="924" y="0" width="8" height="70" />
		<rect x="940" y="0" width="8" height="70" />
		<rect x="956" y="0" width="8" height="70" />
		<rect x="968" y="0" width="4" height="70" />
		<rect x="976" y="0" width="8" height="70" />
		<rect x="992" y="0" width="12" height="70" />
		<rect x="1012" y="0" width="8" height="70" />
		<rect x="1028" y="0" width="8" height="70" />
		<rect x="1044" y="0" width="8" height="70" />
		<rect x="1056" y="0" width="8" height="70" />
		<rect x="1080" y="0" width="4" height="70" />
		<rect x="1088" y="0" width="4" height="70" />
		<rect x="1100" y="0" width="4" height="70" />
		<rect x="1112" y="0" width="4" height="70" />
		<rect x="1120" y="0" width="8" height="70" />
		<rect x="1144" y="0" width="16" height="70" />
		<rect x="1164" y="0" width="12" height="70" />
		<rect x="1180" y="0" width="4" height="70" />
		<rect x="1188" y="0" width="4" height="70" />
		<rect x="1196" y="0" width="8" height="70" />
		<rect x="1212" y="0" width="4" height="70" />
		<rect x="1232" y="0" width="8" height="70" />
		<rect x="1248" y="0" width="8" height="70" />
		<rect x="1264" y="0" width="8" height="70" />
		<rect x="1276" y="0" width="12" height="70" />
		<rect x="1296" y="0" width="4" height="70" />
		<rect x="1308" y="0" width="8" height="70" />
		<rect x="1320" y="0" width="8" height="70" />
		<rect x="1336" y="0" width="8" height="70" />
		<rect x="1352" y="0" width="8" height="70" />
		<rect x="1364" y="0" width="4" height="70" />
		<rect x="1372" y="0" width="4" height="70" />
		<rect x="1388" y="0" width="8" height="70" />
		<rect x="1408" y="0" width="4" height="70" />
		<rect x="1420" y="0" width="8" height="70" />
		<rect x="1432" y="0" width="4" height="70" />
		<rect x="1452" y="0" width="4" height="70" />
		<rect x="1472" y="0" width="8" height="70" />
		<rect x="1484" y="0" width="4" height="70" />
		<rect x="1496" y="0" width="8" height="70" />
		<rect x="1512" y="0" width="4" height="70" />
		<rect x="1520" y="0" width="4" height="70" />
		<rect x="1540" y="0" width="4" height="70" />
		<rect x="1548" y="0" width="8" height="70" />
		<rect x="1564" y="0" width="4" height="70" />
		<rect x="1584" y="0" width="8" height="70" />
		<rect x="1596" y="0" width="8" height="70" />
		<rect x="1612" y="0" width="8" height="70" />
		<rect x="1628" y="0" width="4" height="70" />
		<rect x="1644" y="0" width="4" height="70" />
		<rect x="1652" y="0" width="8" height="70" />
		<rect x="1672" y="0" width="4" height="70" />
		<rect x="1684" y="0" width="4" height="70" />
		<rect x="1692" y="0" width="8" height="70" />
		<rect x="1716" y="0" width="4" height="70" />
		<rect x="1728" y="0" width="8" height="70" />
		<rect x="1740" y="0" width="4" height="70" />
		<rect x="1760" y="0" width="8" height="70" />
		<rect x="1776" y="0" width="8" height="70" />
		<rect x="1792" y="0" width="8" height="70" />
		<rect x="1804" y="0" width="4" height="70" />
		<rect x="1812" y="0" width="8" height="70" />
		<rect x="1828" y="0" width="12" height="70" />
		<rect x="1848" y="0" width="8" height="70" />
		<rect x="1864" y="0" width="8" height="70" />
		<rect x="1880" y="0" width="8" height="70" />
		<rect x="1892" y="0" width="4" height="70" />
		<rect x="1900" y="0" width="4" height="70" />
		<rect x="1912" y="0" width="16" height="70" />
		<rect x="1936" y="0" width="4" height="70" />
		<rect x="1948" y="0" width="4" height="70" />
		<rect x="1960" y="0" width="16" height="70" />
		<rect x="1980" y="0" width="4" height="70" />
		<rect x="2000" y="0" width="8" height="70" />
		<rect x="2012" y="0" width="4" height="70" />
		<rect x="2024" y="0" width="4" height="70" />
		<rect x="2044" y="0" width="4" height="70" />
		<rect x="2052" y="0" width="8" height="70" />
		<rect x="2068" y="0" width="4" height="70" />
		<rect x="2076" y="0" width="8" height="70" />
		<rect x="2092" y="0" width="4" height="70" />
		<rect x="2112" y="0" width="8" height="70" />
		<rect x="2128" y="0" width="8" height="70" />
		<rect x="2144" y="0" width="8" height="70" />
		<rect x="2156" y="0" width="12" height="70" />
		<rect x="2176" y="0" width="4" height="70" />
		<rect x="2188" y="0" width="8" height="70" />
		<rect x="2200" y="0" width="8" height="70" />
		<rect x="2216" y="0" width="8" height="70" />
		<rect x="2232" y="0" width="8" height="70" />
		<rect x="2244" y="0" width="4" height="70" />
		<rect x="2252" y="0" width="12" height="70" />
		<rect x="2268" y="0" width="16" height="70" />
		<rect x="2288" y="0" width="8" height="70" />
		<rect x="2308" y="0" width="4" height="70" />
		<rect x="2320" y="0" width="4" height="70" />
		<rect x="2332" y="0" width="8" height="70" />
		<rect x="2344" y="0" width="8" height="70" />
		<rect x="2360" y="0" width="8" height="70" />
		<rect x="2376" y="0" width="4" height="70" />
		<rect x="2384" y="0" width="16" height="70" />
		<rect x="2404" y="0" width="12" height="70" />
		<rect x="2420" y="0" width="4" height="70" />
		<rect x="2432" y="0" width="8" height="70" />
		<rect x="2448" y="0" width="12" height="70" />
		<rect x="2464" y="0" width="4" height="70" />
		<rect x="2476" y="0" width="12" height="70" />
		<rect x="2492" y="0" width="8" height="70" />
		<rect x="2508" y="0" width="4" height="70" />
		<rect x="2520" y="0" width="12" height="70" />
		<rect x="2536" y="0" width="8" height="70" />
		<rect x="2552" y="0" width="8" height="70" />
		<rect x="2568" y="0" width="8" height="70" />
		<rect x="2584" y="0" width="8" height="70" />
		<rect x="2596" y="0" width="4" height="70" />
		<rect x="2604" y="0" width="8" height="70" />
		<rect x="2620" y="0" width="12" height="70" />
		<rect x="2640" y="0" width="8" height="70" />
		<rect x="2656" y="0" width="8" height="70" />
		<rect x="2672" y="0" width="8" height="70" />
		<rect x="2684" y="0" width="4" height="70" />
		<rect x="2704" y="0" width="4" height="70" />
		<rect x="2716" y="0" width="8" height="70" />
		<rect x="2728" y="0" width="4" height="70" />
		<rect x="2736" y="0" width="8" height="70" />
		<rect x="2752" y="0" width="4" height="70" />
		<rect x="2772" y="0" width="4" height="70" />
		<rect x="2784" y="0" width="16" height="70" />
		<rect x="2804" y="0" width="4" height="70" />
		<rect x="2816" y="0" width="4" height="70" />
		<rect x="2828" y="0" width="4" height="70" />
		<rect x="2836" y="0" width="8" height="70" />
		<rect x="2860" y="0" width="4" height="70" />
		<rect x="2880" y="0" width="8" height="70" />
		<rect x="2892" y="0" width="4" height="70" />
		<rect x="2904" y="0" width="8" height="70" />
		<rect x="2920" y="0" width="4" height="70" />
		<rect x="2928" y="0" width="4" height="70" />
		<rect x="2948" y="0" width="4" height="70" />
		<rect x="2956" y="0" width="16" height="70" />
		<rect x="2980" y="0" width="4" height="70" />
		<rect x="2992" y="0" width="8" height="70" />
		<rect x="3008" y="0" width="8" height="70" />
		<rect x="3024" y="0" width="8" height="70" />
		<rect x="3036" y="0" width="12" height="70" />
		<rect x="3056" y="0" width="4" height="70" />
		<rect x="3068" y="0" width="8" height="70" />
		<rect x="3080" y="0" width="8" height="70" />
		<rect x="3096" y="0" width="8" height="70" />
		<rect x="3112" y="0" width="8" height="70" />
		<rect x="3124" y="0" width="4" height="70" />
		<rect x="3132" y="0" width="4" height="70" />
		<rect x="3148" y="0" width="8" height="70" />
		<rect x="3168" y="0" width="4" height="70" />
		<rect x="3180" y="0" width="8" height="70" />
		<rect x="3192" y="0" width="4" height="70" />
		<rect x="3212" y="0" width="4" height="70" />
		<rect x="3232" y="0" width="8" height="70" />
		<rect x="3244" y="0" width="4" height="70" />
		<rect x="3256" y="0" width="8" height="70" />
		<rect x="3272" y="0" width="4" height="70" />
		<rect x="3280" y="0" width="4" height="70" />
		<rect x="3300" y="0" width="4" height="70" />
		<rect x="3308" y="0" width="8" height="70" />
		<rect x="3324" y="0" width="4" height="70" />
		<rect x="3344" y="0" width="8" height="70" />
		<rect x="3356" y="0" width="8" height="70" />
		<rect x="3372" y="0" width="8" height="70" />
		<rect x="3388" y="0" width="4" height="70" />
		<rect x="3404" y="0" width="8" height="70" />
		<rect x="3416" y="0" width="12" height="70" />
		<rect x="3432" y="0" width="4" height="70" />
		<rect x="3440" y="0" width="8" height="70" />
		<rect x="3456" y="0" width="4" height="70" />
		<rect x="3476" y="0" width="4" height="70" />
		<rect x="3488" y="0" width="4" height="70" />
		<rect x="3496" y="0" width="8" height="70" />
		<rect x="3520" y="0" width="4" height="70" />
		<rect x="3532" y="0" width="16" height="70" />
		<rect x="3552" y="0" width="4" height="70" />
		<rect x="3564" y="0" width="4" height="70" />
		<rect x="3576" y="0" width="8" height="70" />
		<rect x="3600" y="0" width="4" height="70" />
		<rect x="3608" y="0" width="4" height="70" />
		<rect x="3616" y="0" width="8" height="70" />
		<rect x="3632" y="0" width="4" height="70" />
		<rect x="3652" y="0" width="4" height="70" />
		<rect x="3664" y="0" width="4" height="70" />
		<rect x="3676" y="0" width="16" height="70" />
		<rect x="3696" y="0" width="8" height="70" />
		<rect x="3708" y="0" width="8" height="70" />
		<rect x="3724" y="0" width="8" height="70" />
		<rect x="3740" y="0" width="8" height="70" />
		<rect x="3752" y="0" width="12" height="70" />
		<rect x="3768" y="0" width="4" height="70" />
		<rect x="3784" y="0" width="4" height="70" />
		<rect x="3800" y="0" width="16" height="70" />
		<rect x="3820" y="0" width="4" height="70" />
		<rect x="3828" y="0" width="4" height="70" />
		<rect x="3836" y="0" width="8" height="70" />
		<rect x="3860" y="0" width="4" height="70" />
		<rect x="3872" y="0" width="4" height="70" />
		<rect x="3884" y="0" width="4" height="70" />
		<rect x="3892" y="0" width="8" height="70" />
		<rect x="3916" y="0" width="8" height="70" />
		<rect x="3932" y="0" width="8" height="70" />
		<rect x="3948" y="0" width="8" height="70" />
		<rect x="3960" y="0" width="4" height="70" />
		<rect x="3968" y="0" width="4" height="70" />
		<rect x="3984" y="0" width="16" height="70" />
		<rect x="4004" y="0" width="4" height="70" />
		<rect x="4012" y="0" width="4" height="70" />
		<rect x="4032" y="0" width="8" height="70" />
		<rect x="4048" y="0" width="8" height="70" />
		<rect x="4068" y="0" width="12" height="70" />
		<rect x="4084" y="0" width="4" height="70" />
		<rect x="4092" y="0" width="8" height="70" />
		<rect x="4100" y="0" width="0" height="70" />
		<rect x="4100" y="0" width="0" height="70" />
	</g>
</svg>
