<?xml version="1.0" standalone="no"?>
<!DOCTYPE svg PUBLIC "-//W3C//DTD SVG 1.1//EN" "http://www.w3.org/Graphics/SVG/1.1/DTD/svg11.dtd">
<svg width="3132" height="70" version="1.1" xmlns="http://www.w3.org/2000/svg">
	<desc>{"barcode":"31444224465","name":"","price":"600.00","details":"ZIPPER"}</desc>
	<g id="bars" fill="black" stroke="none">
		<rect x="0" y="0" width="8" height="70" />
		<rect x="12" y="0" width="4" height="70" />
		<rect x="24" y="0" width="4" height="70" />
		<rect x="44" y="0" width="16" height="70" />
		<rect x="64" y="0" width="8" height="70" />
		<rect x="76" y="0" width="8" height="70" />
		<rect x="88" y="0" width="8" height="70" />
		<rect x="104" y="0" width="8" height="70" />
		<rect x="120" y="0" width="8" height="70" />
		<rect x="132" y="0" width="4" height="70" />
		<rect x="144" y="0" width="4" height="70" />
		<rect x="164" y="0" width="8" height="70" />
		<rect x="176" y="0" width="4" height="70" />
		<rect x="188" y="0" width="4" height="70" />
		<rect x="196" y="0" width="8" height="70" />
		<rect x="220" y="0" width="4" height="70" />
		<rect x="232" y="0" width="4" height="70" />
		<rect x="244" y="0" width="16" height="70" />
		<rect x="264" y="0" width="4" height="70" />
		<rect x="284" y="0" width="4" height="70" />
		<rect x="292" y="0" width="8" height="70" />
		<rect x="308" y="0" width="4" height="70" />
		<rect x="324" y="0" width="16" height="70" />
		<rect x="344" y="0" width="4" height="70" />
		<rect x="352" y="0" width="4" height="70" />
		<rect x="372" y="0" width="4" height="70" />
		<rect x="384" y="0" width="8" height="70" />
		<rect x="396" y="0" width="4" height="70" />
		<rect x="404" y="0" width="8" height="70" />
		<rect x="420" y="0" width="4" height="70" />
		<rect x="440" y="0" width="8" height="70" />
		<rect x="456" y="0" width="8" height="70" />
		<rect x="472" y="0" width="8" height="70" />
		<rect x="484" y="0" width="12" height="70" />
		<rect x="504" y="0" width="4" height="70" />
		<rect x="516" y="0" width="8" height="70" />
		<rect x="528" y="0" width="8" height="70" />
		<rect x="544" y="0" width="8" height="70" />
		<rect x="560" y="0" width="8" height="70" />
		<rect x="572" y="0" width="4" height="70" />
		<rect x="580" y="0" width="12" height="70" />
		<rect x="596" y="0" width="16" height="70" />
		<rect x="616" y="0" width="8" height="70" />
		<rect x="628" y="0" width="8" height="70" />
		<rect x="648" y="0" width="8" height="70" />
		<rect x="660" y="0" width="4" height="70" />
		<rect x="676" y="0" width="8" height="70" />
		<rect x="688" y="0" width="12" height="70" />
		<rect x="704" y="0" width="4" height="70" />
		<rect x="712" y="0" width="8" height="70" />
		<rect x="724" y="0" width="12" height="70" />
		<rect x="748" y="0" width="12" height="70" />
		<rect x="764" y="0" width="4" height="70" />
		<rect x="776" y="0" width="8" height="70" />
		<rect x="792" y="0" width="4" height="70" />
		<rect x="800" y="0" width="12" height="70" />
		<rect x="824" y="0" width="8" height="70" />
		<rect x="836" y="0" width="4" height="70" />
		<rect x="844" y="0" width="16" height="70" />
		<rect x="864" y="0" width="12" height="70" />
		<rect x="880" y="0" width="8" height="70" />
		<rect x="892" y="0" width="12" height="70" />
		<rect x="912" y="0" width="4" height="70" />
		<rect x="924" y="0" width="8" height="70" />
		<rect x="940" y="0" width="8" height="70" />
		<rect x="956" y="0" width="8" height="70" />
		<rect x="968" y="0" width="4" height="70" />
		<rect x="976" y="0" width="8" height="70" />
		<rect x="992" y="0" width="12" height="70" />
		<rect x="1012" y="0" width="8" height="70" />
		<rect x="1028" y="0" width="8" height="70" />
		<rect x="1044" y="0" width="8" height="70" />
		<rect x="1056" y="0" width="8" height="70" />
		<rect x="1080" y="0" width="4" height="70" />
		<rect x="1088" y="0" width="4" height="70" />
		<rect x="1100" y="0" width="4" height="70" />
		<rect x="1112" y="0" width="4" height="70" />
		<rect x="1120" y="0" width="8" height="70" />
		<rect x="1144" y="0" width="16" height="70" />
		<rect x="1164" y="0" width="12" height="70" />
		<rect x="1180" y="0" width="4" height="70" />
		<rect x="1188" y="0" width="4" height="70" />
		<rect x="1196" y="0" width="8" height="70" />
		<rect x="1212" y="0" width="4" height="70" />
		<rect x="1232" y="0" width="8" height="70" />
		<rect x="1248" y="0" width="8" height="70" />
		<rect x="1264" y="0" width="8" height="70" />
		<rect x="1276" y="0" width="12" height="70" />
		<rect x="1296" y="0" width="4" height="70" />
		<rect x="1308" y="0" width="8" height="70" />
		<rect x="1320" y="0" width="8" height="70" />
		<rect x="1336" y="0" width="8" height="70" />
		<rect x="1352" y="0" width="8" height="70" />
		<rect x="1364" y="0" width="8" height="70" />
		<rect x="1380" y="0" width="8" height="70" />
		<rect x="1396" y="0" width="8" height="70" />
		<rect x="1408" y="0" width="4" height="70" />
		<rect x="1416" y="0" width="8" height="70" />
		<rect x="1432" y="0" width="12" height="70" />
		<rect x="1452" y="0" width="8" height="70" />
		<rect x="1468" y="0" width="8" height="70" />
		<rect x="1484" y="0" width="8" height="70" />
		<rect x="1496" y="0" width="4" height="70" />
		<rect x="1504" y="0" width="4" height="70" />
		<rect x="1516" y="0" width="16" height="70" />
		<rect x="1540" y="0" width="4" height="70" />
		<rect x="1552" y="0" width="4" height="70" />
		<rect x="1564" y="0" width="16" height="70" />
		<rect x="1584" y="0" width="4" height="70" />
		<rect x="1604" y="0" width="8" height="70" />
		<rect x="1616" y="0" width="4" height="70" />
		<rect x="1628" y="0" width="4" height="70" />
		<rect x="1648" y="0" width="4" height="70" />
		<rect x="1656" y="0" width="8" height="70" />
		<rect x="1672" y="0" width="4" height="70" />
		<rect x="1680" y="0" width="8" height="70" />
		<rect x="1696" y="0" width="4" height="70" />
		<rect x="1716" y="0" width="8" height="70" />
		<rect x="1732" y="0" width="8" height="70" />
		<rect x="1748" y="0" width="8" height="70" />
		<rect x="1760" y="0" width="12" height="70" />
		<rect x="1780" y="0" width="4" height="70" />
		<rect x="1792" y="0" width="8" height="70" />
		<rect x="1804" y="0" width="8" height="70" />
		<rect x="1820" y="0" width="8" height="70" />
		<rect x="1836" y="0" width="8" height="70" />
		<rect x="1848" y="0" width="8" height="70" />
		<rect x="1864" y="0" width="12" height="70" />
		<rect x="1880" y="0" width="4" height="70" />
		<rect x="1892" y="0" width="4" height="70" />
		<rect x="1904" y="0" width="12" height="70" />
		<rect x="1920" y="0" width="8" height="70" />
		<rect x="1936" y="0" width="4" height="70" />
		<rect x="1948" y="0" width="12" height="70" />
		<rect x="1964" y="0" width="8" height="70" />
		<rect x="1980" y="0" width="4" height="70" />
		<rect x="1992" y="0" width="8" height="70" />
		<rect x="2008" y="0" width="12" height="70" />
		<rect x="2024" y="0" width="4" height="70" />
		<rect x="2036" y="0" width="12" height="70" />
		<rect x="2052" y="0" width="8" height="70" />
		<rect x="2068" y="0" width="4" height="70" />
		<rect x="2080" y="0" width="12" height="70" />
		<rect x="2096" y="0" width="8" height="70" />
		<rect x="2112" y="0" width="8" height="70" />
		<rect x="2128" y="0" width="8" height="70" />
		<rect x="2144" y="0" width="8" height="70" />
		<rect x="2156" y="0" width="4" height="70" />
		<rect x="2164" y="0" width="8" height="70" />
		<rect x="2180" y="0" width="12" height="70" />
		<rect x="2200" y="0" width="8" height="70" />
		<rect x="2216" y="0" width="8" height="70" />
		<rect x="2232" y="0" width="8" height="70" />
		<rect x="2244" y="0" width="4" height="70" />
		<rect x="2264" y="0" width="4" height="70" />
		<rect x="2276" y="0" width="8" height="70" />
		<rect x="2288" y="0" width="4" height="70" />
		<rect x="2296" y="0" width="8" height="70" />
		<rect x="2312" y="0" width="4" height="70" />
		<rect x="2332" y="0" width="4" height="70" />
		<rect x="2344" y="0" width="16" height="70" />
		<rect x="2364" y="0" width="4" height="70" />
		<rect x="2376" y="0" width="4" height="70" />
		<rect x="2388" y="0" width="4" height="70" />
		<rect x="2396" y="0" width="8" height="70" />
		<rect x="2420" y="0" width="4" height="70" />
		<rect x="2440" y="0" width="8" height="70" />
		<rect x="2452" y="0" width="4" height="70" />
		<rect x="2464" y="0" width="8" height="70" />
		<rect x="2480" y="0" width="4" height="70" />
		<rect x="2488" y="0" width="4" height="70" />
		<rect x="2508" y="0" width="4" height="70" />
		<rect x="2516" y="0" width="16" height="70" />
		<rect x="2540" y="0" width="4" height="70" />
		<rect x="2552" y="0" width="8" height="70" />
		<rect x="2568" y="0" width="8" height="70" />
		<rect x="2584" y="0" width="8" height="70" />
		<rect x="2596" y="0" width="12" height="70" />
		<rect x="2616" y="0" width="4" height="70" />
		<rect x="2628" y="0" width="8" height="70" />
		<rect x="2640" y="0" width="8" height="70" />
		<rect x="2656" y="0" width="8" height="70" />
		<rect x="2672" y="0" width="8" height="70" />
		<rect x="2684" y="0" width="12" height="70" />
		<rect x="2700" y="0" width="8" height="70" />
		<rect x="2720" y="0" width="4" height="70" />
		<rect x="2728" y="0" width="8" height="70" />
		<rect x="2748" y="0" width="4" height="70" />
		<rect x="2764" y="0" width="4" height="70" />
		<rect x="2772" y="0" width="12" height="70" />
		<rect x="2788" y="0" width="12" height="70" />
		<rect x="2804" y="0" width="8" height="70" />
		<rect x="2816" y="0" width="12" height="70" />
		<rect x="2832" y="0" width="12" height="70" />
		<rect x="2848" y="0" width="8" height="70" />
		<rect x="2860" y="0" width="4" height="70" />
		<rect x="2876" y="0" width="8" height="70" />
		<rect x="2888" y="0" width="4" height="70" />
		<rect x="2904" y="0" width="8" height="70" />
		<rect x="2924" y="0" width="4" height="70" />
		<rect x="2932" y="0" width="12" height="70" />
		<rect x="2948" y="0" width="8" height="70" />
		<rect x="2964" y="0" width="8" height="70" />
		<rect x="2980" y="0" width="8" height="70" />
		<rect x="2992" y="0" width="4" height="70" />
		<rect x="3000" y="0" width="4" height="70" />
		<rect x="3016" y="0" width="16" height="70" />
		<rect x="3036" y="0" width="4" height="70" />
		<rect x="3052" y="0" width="16" height="70" />
		<rect x="3072" y="0" width="4" height="70" />
		<rect x="3080" y="0" width="8" height="70" />
		<rect x="3100" y="0" width="12" height="70" />
		<rect x="3116" y="0" width="4" height="70" />
		<rect x="3124" y="0" width="8" height="70" />
		<rect x="3132" y="0" width="0" height="70" />
		<rect x="3132" y="0" width="0" height="70" />
	</g>
</svg>
