<?xml version="1.0" standalone="no"?>
<!DOCTYPE svg PUBLIC "-//W3C//DTD SVG 1.1//EN" "http://www.w3.org/Graphics/SVG/1.1/DTD/svg11.dtd">
<svg width="3440" height="70" version="1.1" xmlns="http://www.w3.org/2000/svg">
	<desc>{"barcode":"58378492082","name":null,"price":"2000.00","details":"Duffle Bag"}</desc>
	<g id="bars" fill="black" stroke="none">
		<rect x="0" y="0" width="8" height="70" />
		<rect x="12" y="0" width="4" height="70" />
		<rect x="24" y="0" width="4" height="70" />
		<rect x="44" y="0" width="16" height="70" />
		<rect x="64" y="0" width="8" height="70" />
		<rect x="76" y="0" width="8" height="70" />
		<rect x="88" y="0" width="8" height="70" />
		<rect x="104" y="0" width="8" height="70" />
		<rect x="120" y="0" width="8" height="70" />
		<rect x="132" y="0" width="4" height="70" />
		<rect x="144" y="0" width="4" height="70" />
		<rect x="164" y="0" width="8" height="70" />
		<rect x="176" y="0" width="4" height="70" />
		<rect x="188" y="0" width="4" height="70" />
		<rect x="196" y="0" width="8" height="70" />
		<rect x="220" y="0" width="4" height="70" />
		<rect x="232" y="0" width="4" height="70" />
		<rect x="244" y="0" width="16" height="70" />
		<rect x="264" y="0" width="4" height="70" />
		<rect x="284" y="0" width="4" height="70" />
		<rect x="292" y="0" width="8" height="70" />
		<rect x="308" y="0" width="4" height="70" />
		<rect x="324" y="0" width="16" height="70" />
		<rect x="344" y="0" width="4" height="70" />
		<rect x="352" y="0" width="4" height="70" />
		<rect x="372" y="0" width="4" height="70" />
		<rect x="384" y="0" width="8" height="70" />
		<rect x="396" y="0" width="4" height="70" />
		<rect x="404" y="0" width="8" height="70" />
		<rect x="420" y="0" width="4" height="70" />
		<rect x="440" y="0" width="8" height="70" />
		<rect x="456" y="0" width="8" height="70" />
		<rect x="472" y="0" width="8" height="70" />
		<rect x="484" y="0" width="12" height="70" />
		<rect x="504" y="0" width="4" height="70" />
		<rect x="516" y="0" width="8" height="70" />
		<rect x="528" y="0" width="8" height="70" />
		<rect x="544" y="0" width="8" height="70" />
		<rect x="560" y="0" width="8" height="70" />
		<rect x="572" y="0" width="4" height="70" />
		<rect x="580" y="0" width="12" height="70" />
		<rect x="596" y="0" width="16" height="70" />
		<rect x="616" y="0" width="12" height="70" />
		<rect x="632" y="0" width="8" height="70" />
		<rect x="652" y="0" width="4" height="70" />
		<rect x="660" y="0" width="4" height="70" />
		<rect x="676" y="0" width="8" height="70" />
		<rect x="688" y="0" width="4" height="70" />
		<rect x="704" y="0" width="4" height="70" />
		<rect x="716" y="0" width="16" height="70" />
		<rect x="736" y="0" width="4" height="70" />
		<rect x="748" y="0" width="4" height="70" />
		<rect x="756" y="0" width="4" height="70" />
		<rect x="764" y="0" width="16" height="70" />
		<rect x="792" y="0" width="4" height="70" />
		<rect x="808" y="0" width="8" height="70" />
		<rect x="824" y="0" width="4" height="70" />
		<rect x="836" y="0" width="4" height="70" />
		<rect x="844" y="0" width="16" height="70" />
		<rect x="864" y="0" width="12" height="70" />
		<rect x="880" y="0" width="8" height="70" />
		<rect x="896" y="0" width="12" height="70" />
		<rect x="916" y="0" width="4" height="70" />
		<rect x="924" y="0" width="8" height="70" />
		<rect x="940" y="0" width="8" height="70" />
		<rect x="956" y="0" width="8" height="70" />
		<rect x="968" y="0" width="4" height="70" />
		<rect x="976" y="0" width="8" height="70" />
		<rect x="992" y="0" width="12" height="70" />
		<rect x="1012" y="0" width="8" height="70" />
		<rect x="1028" y="0" width="8" height="70" />
		<rect x="1044" y="0" width="8" height="70" />
		<rect x="1056" y="0" width="8" height="70" />
		<rect x="1080" y="0" width="4" height="70" />
		<rect x="1088" y="0" width="4" height="70" />
		<rect x="1100" y="0" width="4" height="70" />
		<rect x="1112" y="0" width="4" height="70" />
		<rect x="1120" y="0" width="8" height="70" />
		<rect x="1144" y="0" width="16" height="70" />
		<rect x="1164" y="0" width="12" height="70" />
		<rect x="1180" y="0" width="4" height="70" />
		<rect x="1188" y="0" width="4" height="70" />
		<rect x="1196" y="0" width="8" height="70" />
		<rect x="1212" y="0" width="4" height="70" />
		<rect x="1232" y="0" width="8" height="70" />
		<rect x="1248" y="0" width="8" height="70" />
		<rect x="1264" y="0" width="8" height="70" />
		<rect x="1276" y="0" width="12" height="70" />
		<rect x="1296" y="0" width="4" height="70" />
		<rect x="1308" y="0" width="8" height="70" />
		<rect x="1320" y="0" width="8" height="70" />
		<rect x="1344" y="0" width="4" height="70" />
		<rect x="1352" y="0" width="4" height="70" />
		<rect x="1364" y="0" width="4" height="70" />
		<rect x="1376" y="0" width="16" height="70" />
		<rect x="1400" y="0" width="4" height="70" />
		<rect x="1408" y="0" width="8" height="70" />
		<rect x="1424" y="0" width="4" height="70" />
		<rect x="1432" y="0" width="4" height="70" />
		<rect x="1452" y="0" width="8" height="70" />
		<rect x="1468" y="0" width="4" height="70" />
		<rect x="1476" y="0" width="4" height="70" />
		<rect x="1496" y="0" width="4" height="70" />
		<rect x="1504" y="0" width="8" height="70" />
		<rect x="1520" y="0" width="12" height="70" />
		<rect x="1540" y="0" width="8" height="70" />
		<rect x="1556" y="0" width="8" height="70" />
		<rect x="1572" y="0" width="8" height="70" />
		<rect x="1584" y="0" width="4" height="70" />
		<rect x="1592" y="0" width="4" height="70" />
		<rect x="1604" y="0" width="16" height="70" />
		<rect x="1628" y="0" width="4" height="70" />
		<rect x="1640" y="0" width="4" height="70" />
		<rect x="1652" y="0" width="16" height="70" />
		<rect x="1672" y="0" width="4" height="70" />
		<rect x="1692" y="0" width="8" height="70" />
		<rect x="1704" y="0" width="4" height="70" />
		<rect x="1716" y="0" width="4" height="70" />
		<rect x="1736" y="0" width="4" height="70" />
		<rect x="1744" y="0" width="8" height="70" />
		<rect x="1760" y="0" width="4" height="70" />
		<rect x="1768" y="0" width="8" height="70" />
		<rect x="1784" y="0" width="4" height="70" />
		<rect x="1804" y="0" width="8" height="70" />
		<rect x="1820" y="0" width="8" height="70" />
		<rect x="1836" y="0" width="8" height="70" />
		<rect x="1848" y="0" width="12" height="70" />
		<rect x="1868" y="0" width="4" height="70" />
		<rect x="1880" y="0" width="8" height="70" />
		<rect x="1892" y="0" width="8" height="70" />
		<rect x="1908" y="0" width="8" height="70" />
		<rect x="1924" y="0" width="8" height="70" />
		<rect x="1936" y="0" width="4" height="70" />
		<rect x="1944" y="0" width="12" height="70" />
		<rect x="1960" y="0" width="16" height="70" />
		<rect x="1980" y="0" width="8" height="70" />
		<rect x="1996" y="0" width="4" height="70" />
		<rect x="2008" y="0" width="12" height="70" />
		<rect x="2024" y="0" width="8" height="70" />
		<rect x="2036" y="0" width="8" height="70" />
		<rect x="2052" y="0" width="8" height="70" />
		<rect x="2068" y="0" width="4" height="70" />
		<rect x="2076" y="0" width="16" height="70" />
		<rect x="2096" y="0" width="12" height="70" />
		<rect x="2112" y="0" width="4" height="70" />
		<rect x="2124" y="0" width="8" height="70" />
		<rect x="2140" y="0" width="12" height="70" />
		<rect x="2156" y="0" width="4" height="70" />
		<rect x="2168" y="0" width="12" height="70" />
		<rect x="2184" y="0" width="8" height="70" />
		<rect x="2200" y="0" width="4" height="70" />
		<rect x="2212" y="0" width="12" height="70" />
		<rect x="2228" y="0" width="8" height="70" />
		<rect x="2244" y="0" width="8" height="70" />
		<rect x="2260" y="0" width="8" height="70" />
		<rect x="2276" y="0" width="8" height="70" />
		<rect x="2288" y="0" width="4" height="70" />
		<rect x="2296" y="0" width="8" height="70" />
		<rect x="2312" y="0" width="12" height="70" />
		<rect x="2332" y="0" width="8" height="70" />
		<rect x="2348" y="0" width="8" height="70" />
		<rect x="2364" y="0" width="8" height="70" />
		<rect x="2376" y="0" width="4" height="70" />
		<rect x="2396" y="0" width="4" height="70" />
		<rect x="2408" y="0" width="8" height="70" />
		<rect x="2420" y="0" width="4" height="70" />
		<rect x="2428" y="0" width="8" height="70" />
		<rect x="2444" y="0" width="4" height="70" />
		<rect x="2464" y="0" width="4" height="70" />
		<rect x="2476" y="0" width="16" height="70" />
		<rect x="2496" y="0" width="4" height="70" />
		<rect x="2508" y="0" width="4" height="70" />
		<rect x="2520" y="0" width="4" height="70" />
		<rect x="2528" y="0" width="8" height="70" />
		<rect x="2552" y="0" width="4" height="70" />
		<rect x="2572" y="0" width="8" height="70" />
		<rect x="2584" y="0" width="4" height="70" />
		<rect x="2596" y="0" width="8" height="70" />
		<rect x="2612" y="0" width="4" height="70" />
		<rect x="2620" y="0" width="4" height="70" />
		<rect x="2640" y="0" width="4" height="70" />
		<rect x="2648" y="0" width="16" height="70" />
		<rect x="2672" y="0" width="4" height="70" />
		<rect x="2684" y="0" width="8" height="70" />
		<rect x="2700" y="0" width="8" height="70" />
		<rect x="2716" y="0" width="8" height="70" />
		<rect x="2728" y="0" width="12" height="70" />
		<rect x="2748" y="0" width="4" height="70" />
		<rect x="2760" y="0" width="8" height="70" />
		<rect x="2772" y="0" width="8" height="70" />
		<rect x="2788" y="0" width="8" height="70" />
		<rect x="2804" y="0" width="8" height="70" />
		<rect x="2816" y="0" width="4" height="70" />
		<rect x="2824" y="0" width="8" height="70" />
		<rect x="2844" y="0" width="4" height="70" />
		<rect x="2860" y="0" width="4" height="70" />
		<rect x="2872" y="0" width="16" height="70" />
		<rect x="2896" y="0" width="4" height="70" />
		<rect x="2904" y="0" width="4" height="70" />
		<rect x="2912" y="0" width="8" height="70" />
		<rect x="2936" y="0" width="4" height="70" />
		<rect x="2948" y="0" width="4" height="70" />
		<rect x="2956" y="0" width="8" height="70" />
		<rect x="2980" y="0" width="4" height="70" />
		<rect x="2992" y="0" width="8" height="70" />
		<rect x="3008" y="0" width="4" height="70" />
		<rect x="3016" y="0" width="4" height="70" />
		<rect x="3036" y="0" width="4" height="70" />
		<rect x="3044" y="0" width="8" height="70" />
		<rect x="3060" y="0" width="4" height="70" />
		<rect x="3080" y="0" width="8" height="70" />
		<rect x="3092" y="0" width="8" height="70" />
		<rect x="3108" y="0" width="8" height="70" />
		<rect x="3124" y="0" width="4" height="70" />
		<rect x="3140" y="0" width="4" height="70" />
		<rect x="3148" y="0" width="8" height="70" />
		<rect x="3168" y="0" width="4" height="70" />
		<rect x="3180" y="0" width="4" height="70" />
		<rect x="3188" y="0" width="8" height="70" />
		<rect x="3212" y="0" width="4" height="70" />
		<rect x="3224" y="0" width="8" height="70" />
		<rect x="3236" y="0" width="4" height="70" />
		<rect x="3256" y="0" width="8" height="70" />
		<rect x="3272" y="0" width="8" height="70" />
		<rect x="3288" y="0" width="8" height="70" />
		<rect x="3300" y="0" width="4" height="70" />
		<rect x="3308" y="0" width="4" height="70" />
		<rect x="3324" y="0" width="16" height="70" />
		<rect x="3344" y="0" width="8" height="70" />
		<rect x="3356" y="0" width="8" height="70" />
		<rect x="3368" y="0" width="16" height="70" />
		<rect x="3388" y="0" width="8" height="70" />
		<rect x="3408" y="0" width="12" height="70" />
		<rect x="3424" y="0" width="4" height="70" />
		<rect x="3432" y="0" width="8" height="70" />
		<rect x="3440" y="0" width="0" height="70" />
		<rect x="3440" y="0" width="0" height="70" />
	</g>
</svg>
