<?xml version="1.0" standalone="no"?>
<!DOCTYPE svg PUBLIC "-//W3C//DTD SVG 1.1//EN" "http://www.w3.org/Graphics/SVG/1.1/DTD/svg11.dtd">
<svg width="380" height="70" version="1.1" xmlns="http://www.w3.org/2000/svg">
	<desc>0550160407510</desc>
	<g id="bars" fill="black" stroke="none">
		<rect x="0" y="0" width="4" height="70" />
		<rect x="8" y="0" width="4" height="70" />
		<rect x="16" y="0" width="8" height="70" />
		<rect x="36" y="0" width="4" height="70" />
		<rect x="44" y="0" width="8" height="70" />
		<rect x="64" y="0" width="4" height="70" />
		<rect x="80" y="0" width="8" height="70" />
		<rect x="92" y="0" width="4" height="70" />
		<rect x="104" y="0" width="8" height="70" />
		<rect x="120" y="0" width="4" height="70" />
		<rect x="128" y="0" width="4" height="70" />
		<rect x="136" y="0" width="16" height="70" />
		<rect x="164" y="0" width="8" height="70" />
		<rect x="176" y="0" width="4" height="70" />
		<rect x="184" y="0" width="4" height="70" />
		<rect x="192" y="0" width="4" height="70" />
		<rect x="200" y="0" width="4" height="70" />
		<rect x="208" y="0" width="12" height="70" />
		<rect x="228" y="0" width="12" height="70" />
		<rect x="248" y="0" width="4" height="70" />
		<rect x="256" y="0" width="4" height="70" />
		<rect x="272" y="0" width="4" height="70" />
		<rect x="284" y="0" width="4" height="70" />
		<rect x="296" y="0" width="12" height="70" />
		<rect x="312" y="0" width="8" height="70" />
		<rect x="328" y="0" width="8" height="70" />
		<rect x="340" y="0" width="12" height="70" />
		<rect x="360" y="0" width="4" height="70" />
		<rect x="368" y="0" width="4" height="70" />
		<rect x="376" y="0" width="4" height="70" />
	</g>
</svg>
